<?xml version="1.0" standalone="no"?><!DOCTYPE svg PUBLIC "-//W3C//DTD SVG 1.1//EN" "http://www.w3.org/Graphics/SVG/1.1/DTD/svg11.dtd"><svg t="1589942446160" class="icon" viewBox="0 0 1024 1024" version="1.1" xmlns="http://www.w3.org/2000/svg" p-id="4768" xmlns:xlink="http://www.w3.org/1999/xlink" width="200" height="200"><defs><style type="text/css"></style></defs><path d="M512 789.942857c258.530743 0 468.114286-45.845943 468.114286-102.4s-209.583543-102.4-468.114286-102.4c-162.230857 0-305.195886 18.051657-389.178514 45.480229C72.967314 646.904686 43.885714 666.477714 43.885714 687.542857c0 56.554057 209.583543 102.4 468.114286 102.4z" fill="#F5F5F5" p-id="4769"></path><path d="M671.553829 197.485714H352.446171c-13.575314 0-26.243657 8.250514-34.698971 21.840457L168.228571 388.7104V533.942857h687.542858v-145.232457L705.536 218.360686c-7.738514-12.624457-20.406857-20.874971-33.982171-20.874972z m0 14.628572l2.018742 0.117028c7.431314 0.804571 14.789486 6.0416 20.260572 14.818743L841.142857 394.24V519.314286h-658.285714v-125.103543l146.578286-166.180572c6.699886-10.561829 14.921143-15.915886 23.010742-15.915885h319.107658z" fill="#D9D9D9" p-id="4770"></path><path d="M338.797714 394.971429c17.349486 0 31.451429 17.890743 32.504686 40.155428l0.073143 2.998857c0 22.586514 13.589943 40.974629 30.661486 42.349715l2.062628 0.087771h215.800686c17.334857 0 31.597714-17.685943 32.6656-39.936l0.058514-2.677029c0-22.674286 13.443657-41.472 30.5152-42.890971l2.048-0.087771H848.457143v265.3184c0 30.0032-18.051657 54.813257-40.784457 56.4224L805.302857 716.8h-586.605714c-23.04 0-41.866971-23.800686-43.095772-53.423543l-0.058514-3.072V394.971429h163.254857z" fill="#FAFAFA" p-id="4771"></path><path d="M168.228571 387.657143v272.632686l0.058515 3.232914C169.691429 697.051429 191.3856 724.114286 218.697143 724.114286h586.605714l2.633143-0.087772c27.311543-1.9456 47.835429-30.281143 47.835429-63.736685V387.657143H685.202286l-2.369829 0.087771c-20.831086 1.726171-36.337371 22.469486-37.449143 47.3088l-0.131657 5.412572c-0.892343 18.592914-12.448914 32.782629-25.351314 32.782628H404.099657l-1.755428-0.073143c-12.0832-0.980114-22.615771-14.701714-23.581258-32.373028l-0.146285-5.851429c-1.243429-26.155886-18.212571-47.294171-39.818972-47.294171H168.228571z m14.628572 272.4864V402.285714h155.940571c12.829257 0 24.298057 14.292114 25.205029 33.1776l0.058514 2.808686c0 25.8048 16.003657 47.776914 37.390629 49.503086l2.3552 0.1024h216.093257c21.621029 0 38.721829-20.992 39.965257-46.884572l0.073143-2.8672c0-19.338971 10.9568-34.7136 23.800686-35.781485l1.755428-0.058515H841.142857v258.004115c0 26.433829-15.477029 47.806171-33.982171 49.137371l-2.106515 0.058514H218.697143c-18.519771 0-34.698971-20.187429-35.781486-46.416457l-0.058514-2.925714z" fill="#D9D9D9" p-id="4772"></path></svg>