<?xml version="1.0" standalone="no"?><!DOCTYPE svg PUBLIC "-//W3C//DTD SVG 1.1//EN" "http://www.w3.org/Graphics/SVG/1.1/DTD/svg11.dtd"><svg t="1583286697124" class="icon" viewBox="0 0 1024 1024" version="1.1" xmlns="http://www.w3.org/2000/svg" p-id="3191" xmlns:xlink="http://www.w3.org/1999/xlink" width="200" height="200"><defs><style type="text/css"></style></defs><path d="M85.333333 512c0 235.669333 190.997333 426.666667 426.666667 426.666667s426.666667-190.997333 426.666667-426.666667S747.669333 85.333333 512 85.333333 85.333333 276.330667 85.333333 512z" fill="#EBEFFE" p-id="3192"></path><path d="M678.954667 382.144h-74.197334v-74.197333z" fill="#3964F9" p-id="3193"></path><path d="M583.957333 405.930667v-97.984h-200.746666c-20.992 0-38.186667 17.557333-38.186667 39.04v330.026666c0 21.482667 17.194667 39.04 38.186667 39.04h257.578666c20.992 0 38.186667-17.557333 38.186667-39.04V405.930667h-95.018667z m23.04 161.024a17.194667 17.194667 0 0 1-17.024 17.386666h-164.906666a17.194667 17.194667 0 0 1-17.024-17.386666c0-9.6 7.573333-17.408 17.024-17.408h164.906666c9.386667 0 17.024 7.829333 17.024 17.408z m0-87.850667a17.194667 17.194667 0 0 1-17.024 17.408h-164.906666a17.194667 17.194667 0 0 1-17.024-17.408c0-9.557333 7.573333-17.386667 17.024-17.386667h164.906666c9.386667 0 17.024 7.744 17.024 17.386667z" fill="#3964F9" p-id="3194"></path></svg>