<?xml version="1.0" standalone="no"?><!DOCTYPE svg PUBLIC "-//W3C//DTD SVG 1.1//EN" "http://www.w3.org/Graphics/SVG/1.1/DTD/svg11.dtd"><svg t="1587089972160" class="icon" viewBox="0 0 1024 1024" version="1.1" xmlns="http://www.w3.org/2000/svg" p-id="4304" xmlns:xlink="http://www.w3.org/1999/xlink" width="200" height="200"><defs><style type="text/css"></style></defs><path d="M512 938.666667c235.648 0 426.666667-191.018667 426.666667-426.666667S747.648 85.333333 512 85.333333 85.333333 276.352 85.333333 512s191.018667 426.666667 426.666667 426.666667z" fill="#E6F7FF" p-id="4305"></path><path d="M315.733333 308.821333h372.202667c15.04 0 27.242667 10.624 27.242667 23.701334v379.264c0 13.098667-12.202667 23.701333-27.242667 23.701333H315.733333c-15.04 0-27.221333-10.602667-27.221333-23.68V332.501333c0-13.077333 12.181333-23.68 27.221333-23.68z m188.373334 209.386667c41.386667 0 74.88-29.184 74.88-65.194667 0-35.989333-33.493333-65.173333-74.88-65.173333-41.365333 0-74.88 29.184-74.88 65.173333 0 36.010667 33.514667 65.194667 74.88 65.194667z m30.677333 27.648H468.906667c-51.776 0-94.144 35.562667-94.144 79.018667 0 13.034667 19.861333 23.701333 47.082666 23.701333h160.042667c30.037333 0 47.061333-10.666667 47.061333-23.701333 0-43.456-42.346667-79.018667-94.144-79.018667z" fill="#0080FF" p-id="4306"></path></svg>