<?xml version="1.0" standalone="no"?><!DOCTYPE svg PUBLIC "-//W3C//DTD SVG 1.1//EN" "http://www.w3.org/Graphics/SVG/1.1/DTD/svg11.dtd"><svg t="1583286605154" class="icon" viewBox="0 0 1024 1024" version="1.1" xmlns="http://www.w3.org/2000/svg" p-id="2468" xmlns:xlink="http://www.w3.org/1999/xlink" width="200" height="200"><defs><style type="text/css"></style></defs><path d="M512 938.666667c235.648 0 426.666667-191.018667 426.666667-426.666667S747.648 85.333333 512 85.333333 85.333333 276.352 85.333333 512s191.018667 426.666667 426.666667 426.666667z" fill="#EBEFFE" p-id="2469"></path><path d="M433.92 307.477333A278.613333 278.613333 0 0 1 505.557333 298.666667c25.813333 0 49.685333 2.986667 71.658667 8.810666 21.973333 5.824 39.338667 13.824 52.096 23.893334 12.736 10.026667 19.157333 20.906667 19.157333 32.661333v32.704c0 11.754667-6.357333 22.613333-19.157333 32.682667-12.8 10.048-30.144 18.005333-52.096 23.893333-21.973333 5.76-45.866667 8.682667-71.658667 8.682667s-49.664-2.986667-71.637333-8.810667c-21.973333-5.824-39.338667-13.824-52.074667-23.893333-12.8-10.048-19.178667-20.906667-19.178666-32.682667V363.946667c0-11.776 6.378667-22.613333 19.178666-32.682667 12.8-9.941333 30.122667-17.898667 52.074667-23.765333z" fill="#C8D2ED" p-id="2470"></path><path d="M423.189333 486.357333c25.557333 5.482667 53.013333 8.234667 82.410667 8.234667a391.68 391.68 0 0 0 82.389333-8.234667c25.557333-5.504 45.738667-13.610667 60.48-24.32v32.554667c0 8.832-6.4 17.002667-19.178666 24.533333-12.8 7.573333-30.122667 13.525333-52.096 17.941334a366.016 366.016 0 0 1-71.616 6.570666c-25.792 0-49.685333-2.218667-71.637334-6.613333-21.973333-4.373333-39.338667-10.389333-52.096-17.92-12.8-7.573333-19.178667-15.701333-19.178666-24.554667v-32.554666c14.784 10.794667 34.965333 18.901333 60.522666 24.362666z" fill="#4060E4" p-id="2471"></path><path d="M423.189333 567.978667c25.557333 5.482667 53.013333 8.234667 82.410667 8.234666 29.376 0 56.853333-2.730667 82.389333-8.234666 25.557333-5.482667 45.738667-13.589333 60.48-24.32v32.554666c0 8.832-6.4 17.002667-19.178666 24.533334-12.8 7.573333-30.122667 13.525333-52.096 17.941333a363.52 363.52 0 0 1-71.616 6.613333c-25.792 0-49.685333-2.24-71.637334-6.613333-21.973333-4.373333-39.296-10.368-52.096-17.92-12.8-7.552-19.178667-15.701333-19.178666-24.554667v-32.576c14.784 10.730667 34.965333 18.837333 60.522666 24.32z" fill="#4060E4" p-id="2472"></path><path d="M423.189333 649.685333c25.557333 5.461333 53.013333 8.213333 82.410667 8.213334 29.376 0 56.853333-2.752 82.389333-8.234667 25.557333-5.482667 45.738667-13.589333 60.48-24.32v32.576c0 8.832-6.4 16.981333-19.178666 24.533333-12.8 7.552-30.122667 13.525333-52.096 17.941334-21.973333 4.416-45.802667 6.570667-71.616 6.570666-25.792 0-49.685333-2.24-71.637334-6.613333-21.973333-4.373333-39.338667-10.389333-52.096-17.92-12.8-7.573333-19.178667-15.722667-19.178666-24.554667V625.28c14.784 10.773333 34.965333 18.88 60.522666 24.362667z" fill="#4060E4" p-id="2473"></path></svg>