<?xml version="1.0" standalone="no"?><!DOCTYPE svg PUBLIC "-//W3C//DTD SVG 1.1//EN" "http://www.w3.org/Graphics/SVG/1.1/DTD/svg11.dtd"><svg t="1587089958004" class="icon" viewBox="0 0 1024 1024" version="1.1" xmlns="http://www.w3.org/2000/svg" p-id="4064" xmlns:xlink="http://www.w3.org/1999/xlink" width="200" height="200"><defs><style type="text/css"></style></defs><path d="M512 938.666667c235.648 0 426.666667-191.018667 426.666667-426.666667S747.648 85.333333 512 85.333333 85.333333 276.352 85.333333 512s191.018667 426.666667 426.666667 426.666667z" fill="#E6F7FF" p-id="4065"></path><path d="M711.018667 364.48A44.437333 44.437333 0 0 1 672.064 298.666667H349.952A44.458667 44.458667 0 0 1 298.666667 362.752v76.416h0.085333C302.933333 654.144 450.709333 725.333333 511.786667 725.333333c61.717333 0 207.637333-72.704 213.354666-286.165333v-0.064c0.256-9.813333 0.256-19.626667 0-29.418667v-47.488a44.48 44.48 0 0 1-14.122666 2.282667z m-99.477334 76.373333h-85.333333v113.578667h85.290667v28.437333h-199.04V554.453333h85.312v-113.578666h-85.312v-28.437334h199.082666v28.437334z" fill="#2D8CF0" p-id="4066"></path></svg>