<?xml version="1.0" standalone="no"?><!DOCTYPE svg PUBLIC "-//W3C//DTD SVG 1.1//EN" "http://www.w3.org/Graphics/SVG/1.1/DTD/svg11.dtd"><svg t="1586846757333" class="icon" viewBox="0 0 1024 1024" version="1.1" xmlns="http://www.w3.org/2000/svg" p-id="3630" xmlns:xlink="http://www.w3.org/1999/xlink" width="200" height="200"><defs><style type="text/css"></style></defs><path d="M0 511.99968c0 282.751823 229.247857 511.99968 511.99968 511.99968s511.99968-229.247857 511.99968-511.99968S794.751503 0 511.99968 0 0 229.247857 0 511.99968z" fill="#E2EAF0" p-id="3631"></path><path d="M177.343889 899.519438a304.63981 304.63981 0 0 1 215.071866-88.863945h230.719856a304.63981 304.63981 0 0 1 218.911863 92.767942A509.951681 509.951681 0 0 1 511.99968 1023.99936a510.079681 510.079681 0 0 1-334.655791-124.479922z" fill="#B8C7D4" p-id="3632"></path><path d="M627.263608 810.687493a119.487925 119.487925 0 0 1-238.943851 0h238.911851z" fill="#D0DFEB" p-id="3633"></path><path d="M456.575715 639.9996h102.399936c18.879988 0 34.143979 15.29599 34.143978 34.143979v136.511914a85.343947 85.343947 0 0 1-170.655893 0v-136.511914c0-18.879988 15.26399-34.143979 34.111979-34.143979z" fill="#FFFFFF" p-id="3634"></path><path d="M697.951564 544.863659l-1.439999 16.63999a188.191882 188.191882 0 0 1-375.039766 0l-1.343999-15.58399a42.687973 42.687973 0 0 1-7.167996-85.023947l-1.983998-23.551985a198.719876 198.719876 0 0 1 181.279886-214.783866 201.919874 201.919874 0 0 1 16.73599-0.704h197.663876a17.087989 17.087989 0 0 1 17.02399 18.495989l-18.655989 220.543862a42.655973 42.655973 0 1 1-7.103995 83.967947h0.032z" fill="#FFFFFF" p-id="3635"></path><path d="M443.743723 580.255637h136.511914a68.255957 68.255957 0 1 1-136.511914 0z" fill="#D0DFEB" p-id="3636"></path></svg>