<?xml version="1.0" standalone="no"?><!DOCTYPE svg PUBLIC "-//W3C//DTD SVG 1.1//EN" "http://www.w3.org/Graphics/SVG/1.1/DTD/svg11.dtd"><svg t="1583458917665" class="icon" viewBox="0 0 1024 1024" version="1.1" xmlns="http://www.w3.org/2000/svg" p-id="2570" xmlns:xlink="http://www.w3.org/1999/xlink" width="200" height="200"><defs><style type="text/css"></style></defs><path d="M892.373333 917.333333h-174.890666c-13.546667 0.234667-24.746667-11.072-24.96-25.258666V131.989333c0-14.08 11.2-25.322667 24.96-25.322666h174.869333C906.24 106.666667 917.333333 117.973333 917.333333 131.989333v760.021334c-0.170667 14.144-11.264 25.493333-24.789333 25.322666h-0.192zM867.370667 157.312h-124.928v709.376h124.928V157.312zM599.381333 917.333333h-175.189333c-13.589333 0.234667-24.789333-11.093333-25.024-25.322666v-356.053334c0-14.08 11.136-25.301333 25.024-25.301333h175.125333c13.952 0 25.088 11.306667 25.088 25.322667v356.032c-0.149333 14.144-11.264 25.493333-24.768 25.322666h-0.256z m-25.173333-356.096h-125.034667v305.386667h125.056V561.237333zM306.837333 917.333333H131.690667c-13.568 0.234667-24.789333-11.093333-25.024-25.322666V385.386667c0-14.08 11.2-25.322667 25.024-25.322667h175.146666c13.802667 0 25.024 11.306667 25.024 25.322667v506.624c0 14.016-11.221333 25.322667-25.045333 25.322666z m-24.96-506.666666H156.672v455.957333h125.184V410.645333z" fill="#000000" fill-opacity=".65" p-id="2571"></path></svg>