<?xml version="1.0" standalone="no"?><!DOCTYPE svg PUBLIC "-//W3C//DTD SVG 1.1//EN" "http://www.w3.org/Graphics/SVG/1.1/DTD/svg11.dtd"><svg t="1584612219593" class="icon" viewBox="0 0 1024 1024" version="1.1" xmlns="http://www.w3.org/2000/svg" p-id="3001" xmlns:xlink="http://www.w3.org/1999/xlink" width="200" height="200"><defs><style type="text/css"></style></defs><path d="M192 128m21.333333 0l661.333334 0q21.333333 0 21.333333 21.333333l0 661.333334q0 21.333333-21.333333 21.333333l-661.333334 0q-21.333333 0-21.333333-21.333333l0-661.333334q0-21.333333 21.333333-21.333333Z" fill="#9AB9FF" p-id="3002"></path><path d="M106.666667 213.333333m21.333333 0l469.333333 0q21.333333 0 21.333334 21.333334l0 661.333333q0 21.333333-21.333334 21.333333l-469.333333 0q-21.333333 0-21.333333-21.333333l0-661.333333q0-21.333333 21.333333-21.333334Z" fill="#2A6BFF" p-id="3003"></path><path d="M192 597.333333h320v42.666667H192z" fill="#E9F0FF" p-id="3004"></path><path d="M661.333333 320h192v42.666667h-192zM661.333333 448h192v42.666667h-192zM661.333333 597.333333h192v42.666667h-192z" fill="#FFFFFF" p-id="3005"></path><path d="M192 725.333333h320v42.666667H192z" fill="#E9F0FF" p-id="3006"></path><path d="M270.890667 298.666667l54.570666 146.261333H302.144l-13.397333-37.845333H228.224l-13.397333 37.845333H192L246.570667 298.666667h24.32z m11.904 90.026666L259.477333 322.688h-1.002666L234.666667 388.672h48.128z m134.442666-40.938666c5.973333 6.656 9.429333 16.384 9.429334 29.653333v67.52h-19.349334v-14.826667c-3.968 5.12-8.917333 9.706667-14.890666 12.8-6.933333 3.050667-14.869333 5.098667-23.808 5.098667-10.922667 0-18.858667-3.072-24.810667-8.192a27.456 27.456 0 0 1-9.92-21.461333c0-11.776 4.48-20.970667 13.888-27.626667 8.448-6.144 20.352-9.216 35.221333-9.706667l22.826667-0.512v-4.096c0-14.826667-7.936-21.994667-23.317333-21.994666-6.442667 0-11.904 1.024-15.872 3.584a18.026667 18.026667 0 0 0-8.938667 13.290666l-20.821333-2.048c1.984-11.242667 7.936-19.946667 16.362666-25.557333 7.445333-5.12 17.856-7.168 30.762667-7.168 14.890667 0 25.813333 3.584 33.237333 11.242667zM384 396.842667c-19.349333 0.533333-28.778667 7.168-28.778667 20.48 0 4.074667 1.493333 7.146667 4.970667 10.218666 2.986667 2.56 7.445333 4.096 12.885333 4.096 8.96 0 16.384-3.072 22.826667-8.192 6.464-5.632 9.92-12.266667 9.92-20.458666v-6.144H384z" fill="#FFFFFF" p-id="3007"></path></svg>