<?xml version="1.0" standalone="no"?><!DOCTYPE svg PUBLIC "-//W3C//DTD SVG 1.1//EN" "http://www.w3.org/Graphics/SVG/1.1/DTD/svg11.dtd"><svg t="1583286713127" class="icon" viewBox="0 0 1024 1024" version="1.1" xmlns="http://www.w3.org/2000/svg" p-id="3553" xmlns:xlink="http://www.w3.org/1999/xlink" width="200" height="200"><defs><style type="text/css"></style></defs><path d="M512 512m-426.666667 0a426.666667 426.666667 0 1 0 853.333334 0 426.666667 426.666667 0 1 0-853.333334 0Z" fill="#E6F7FF" p-id="3554"></path><path d="M359.296 298.666667h305.408c9.92 0 17.962667 8.682667 17.962667 19.413333v387.84c0 10.730667-8.042667 19.413333-17.962667 19.413333H359.296c-9.92 0-17.962667-8.682667-17.962667-19.413333V318.08c0-10.730667 8.042667-19.413333 17.962667-19.413333z m35.925333 77.568v38.805333h233.557334v-38.805333H395.221333z m0 96.981333V512h233.557334v-38.784H395.221333z m0 96.96v38.784h89.813334v-38.784h-89.813334z" fill="#0091FF" p-id="3555"></path></svg>