<?xml version="1.0" standalone="no"?><!DOCTYPE svg PUBLIC "-//W3C//DTD SVG 1.1//EN" "http://www.w3.org/Graphics/SVG/1.1/DTD/svg11.dtd"><svg t="1583458925438" class="icon" viewBox="0 0 1024 1024" version="1.1" xmlns="http://www.w3.org/2000/svg" p-id="2689" xmlns:xlink="http://www.w3.org/1999/xlink" width="200" height="200"><defs><style type="text/css"></style></defs><path d="M118.016 257.877333H423.04c21.781333 0 32.682667 10.453333 32.682667 31.381334 0 20.906667-10.88 31.381333-32.682667 31.381333H118.016C96.213333 320.64 85.333333 310.186667 85.333333 289.258667c0-20.906667 10.88-31.381333 32.682667-31.381334z m533.781333 0h254.186667c21.781333 0 32.682667 10.453333 32.682667 31.381334 0 20.906667-10.88 31.381333-32.682667 31.381333H651.797333c-21.781333 0-32.682667-10.453333-32.682666-31.381333 0-20.906667 10.88-31.381333 32.682666-31.381334z m0 202.24h203.349334c21.781333 0 32.682667 10.453333 32.682666 31.36 0 20.928-10.88 31.402667-32.682666 31.402667h-203.349334c-21.781333 0-32.682667-10.453333-32.682666-31.381333 0-20.928 10.88-31.381333 32.682666-31.381334z m-352.213333-167.381333v467.242667c0 20.906667-10.901333 31.36-32.682667 31.36-21.802667 0-32.682667-10.453333-32.682666-31.36V292.736c0-20.906667 10.88-31.36 32.682666-31.36 21.76 0 32.682667 10.453333 32.682667 31.36z m295.978667-83.712l-146.453334 661.653333c-4.522667 20.48-17.450667 28.522667-38.762666 24.170667-21.312-4.352-29.696-16.746667-25.173334-37.205333l146.474667-661.653334c4.522667-20.48 17.450667-28.522667 38.741333-24.170666 21.333333 4.352 29.717333 16.746667 25.173334 37.205333z m85.290666 83.712v467.242667c0 20.906667-10.88 31.36-32.682666 31.36-21.781333 0-32.682667-10.453333-32.682667-31.36V292.736c0-20.906667 10.88-31.36 32.682667-31.36 21.781333 0 32.682667 10.453333 32.682666 31.36z" fill="#000000" fill-opacity=".65" p-id="2690"></path></svg>