<?xml version="1.0" standalone="no"?><!DOCTYPE svg PUBLIC "-//W3C//DTD SVG 1.1//EN" "http://www.w3.org/Graphics/SVG/1.1/DTD/svg11.dtd"><svg t="1583286597631" class="icon" viewBox="0 0 1024 1024" version="1.1" xmlns="http://www.w3.org/2000/svg" p-id="2348" xmlns:xlink="http://www.w3.org/1999/xlink" width="200" height="200"><defs><style type="text/css"></style></defs><path d="M512 512m-426.666667 0a426.666667 426.666667 0 1 0 853.333334 0 426.666667 426.666667 0 1 0-853.333334 0Z" fill="#FFF7D4" p-id="2349"></path><path d="M725.333333 708.672c0 9.984-10.005333 16.661333-20.010666 16.661333H318.677333c-9.984 0-19.989333-6.677333-19.989333-16.661333 0 0 0-66.666667 53.333333-90.005333 33.344-13.333333 20.010667-3.328 63.338667-16.661334 40-16.682667 50.005333-20.010667 50.005333-20.010666l-3.349333-26.666667s-46.656-13.333333-53.333333-56.661333c-13.333333 3.328-19.989333-16.661333-19.989334-26.666667s-10.005333-43.328 10.005334-40c-3.349333-23.338667-6.677333-43.328-6.677334-56.661333 3.328-16.661333-3.328-20.010667 16.661334-36.672 3.328-3.328-3.328-20.010667 0-26.666667 3.328-6.677333 40-3.328 46.677333-3.328a138.176 138.176 0 0 1 53.333333-10.005333c80 3.328 109.994667 43.328 113.322667 80 0 10.005333 0 29.994667-6.656 53.333333 16.661333-3.328 9.984 29.994667 9.984 40 0 10.005333-6.656 29.994667-19.989333 26.666667-6.677333 46.677333-46.677333 56.661333-46.677334 56.661333l-3.328 26.666667s10.005333 3.349333 50.005334 20.010666c40 16.661333 29.994667 3.328 63.338666 19.989334C725.333333 645.333333 725.333333 708.693333 725.333333 708.693333z" fill="#FAAD14" p-id="2350"></path></svg>