<?xml version="1.0" standalone="no"?><!DOCTYPE svg PUBLIC "-//W3C//DTD SVG 1.1//EN" "http://www.w3.org/Graphics/SVG/1.1/DTD/svg11.dtd"><svg t="1585115499618" class="icon" viewBox="0 0 1024 1024" version="1.1" xmlns="http://www.w3.org/2000/svg" p-id="3383" xmlns:xlink="http://www.w3.org/1999/xlink" width="200" height="200"><defs><style type="text/css"></style></defs><path d="M420.425143 710.436571s0 3.730286-3.730286 3.730286c0 0 3.730286 0 3.730286-3.657143z m-4.827429 0.073143c-2.925714 2.779429-5.851429 4.608-8.777143 7.314286 2.925714-2.706286 5.851429-5.485714 8.777143-7.314286z m-14.628571 13.385143c3.657143-1.828571 5.485714-5.485714 7.314286-7.314286l-7.314286 7.314286z m23.405714-20.918857c-1.828571 2.779429-5.485714 5.485714-7.314286 7.314286 3.657143-1.828571 5.485714-4.534857 7.314286-7.314286z m5.851429-7.533714l-7.314286 7.314285c4.900571-2.413714 7.314286-4.900571 7.314286-7.314285z m-2.779429 8.192v3.803428c-3.730286 0-3.730286-3.803429 0-3.803428z m1.316572-15.725715c0 2.194286-1.462857 4.534857-1.462858 6.802286 4.388571-12.873143-2.925714-26.404571-21.942857-36.205714l-1.462857-0.731429a120.246857 120.246857 0 0 0-48.274286-11.337143c40.96 1.462857 73.142857 19.602286 73.142858 40.740572v0.731428z m0.731428 8.557715c0 3.803429 0 3.803429 0 0 0 3.803429 0 3.803429 0 0z" fill="#ffffff" opacity=".65" p-id="3384"></path><path d="M383.926857 683.373714a31.378286 31.378286 0 0 0-8.704-27.721143l-0.512-0.585142a30.573714 30.573714 0 0 0-19.090286-8.630858H39.058286a31.085714 31.085714 0 0 0-31.158857 31.158858v0.585142c0 17.334857 13.897143 31.232 31.158857 31.232h238.592L18.285714 968.777143a31.012571 31.012571 0 0 0 0 43.885714l0.585143 0.585143a31.012571 31.012571 0 0 0 43.885714 0l259.364572-259.364571v238.592c0 17.261714 13.897143 31.158857 31.158857 31.158857h0.585143c17.334857 0 31.232-13.897143 31.232-31.158857V678.180571c-0.585143 1.755429-0.585143 3.510857-1.170286 5.193143z m5.558857 0.585143l-7.314285 7.314286c4.900571-2.413714 7.314286-4.827429 7.314285-7.314286z m-2.267428 5.851429c-1.828571 2.706286-5.485714 5.412571-7.314286 7.314285 3.657143-1.901714 5.485714-4.608 7.314286-7.314285z m-4.096 5.705143c-2.413714 2.779429-4.827429 4.608-7.314286 7.314285 2.486857-2.706286 4.900571-5.485714 7.314286-7.314285z" fill="#ffffff" opacity=".65" p-id="3385"></path><path d="M384.512 687.908571c0 2.194286-0.585143 4.534857-0.585143 6.802286a49.444571 49.444571 0 0 0-8.704-36.205714l-0.512-0.731429a28.013714 28.013714 0 0 0-19.090286-11.337143c16.164571 1.462857 28.891429 19.602286 28.891429 40.740572v0.731428z m-1.389714 22.674286c-2.413714 2.706286-4.827429 4.534857-7.314286 7.314286a55.149714 55.149714 0 0 1 7.314286-7.314286z m-9.581715 13.312c3.657143-1.828571 5.485714-5.485714 7.314286-7.314286l-7.314286 7.314286z m13.677715-20.918857c-1.828571 2.779429-5.485714 5.485714-7.314286 7.314286 3.657143-1.828571 5.485714-4.534857 7.314286-7.314286z m-2.633143 7.460571s0 3.730286-3.803429 3.730286c0 0 3.803429 0 3.803429-3.657143z m2.486857-6.802285v3.803428c-3.803429 0-3.803429-3.803429 0-3.803428z m0-7.168c0 3.803429 0 3.803429 0 0 0 3.803429 0 3.803429 0 0z m2.413714-1.024l-7.314285 7.314285c4.900571-2.413714 7.314286-4.900571 7.314285-7.314285z m268.214857-47.542857c2.340571-0.731429 4.608-1.462857 6.948572-1.462858a28.013714 28.013714 0 0 0-19.017143 11.337143l-0.585143 0.731429a46.226286 46.226286 0 0 0-8.704 24.868571c0-2.998857 0.585143-5.997714 1.170286-9.069714a38.326857 38.326857 0 0 1 20.187428-26.331429z m15.652572-0.731429c2.194286 2.486857 5.12 4.900571 7.314286 7.314286a68.973714 68.973714 0 0 0-7.314286-7.314286z m21.211428 15.652571c-2.194286-2.486857-4.242286-6.144-7.314285-7.314285 0.950857 1.170286 3.072 2.413714 4.096 4.827428l3.145143 2.486857z" fill="#ffffff" opacity=".65" p-id="3386"></path><path d="M642.194286 668.379429c-3.730286 2.413714-3.730286 4.900571-3.730286 7.314285 0-2.413714 0-4.900571 3.657143-7.314285z" fill="#ffffff" opacity=".65" p-id="3387"></path><path d="M1013.028571 678.180571v-0.585142a31.085714 31.085714 0 0 0-31.232-31.158858H666.989714c-1.755429 0-4.096 0-5.851428 0.585143 1.170286 0 2.340571-0.585143 3.510857-0.585143a30.573714 30.573714 0 0 0-19.017143 8.630858l-0.585143 0.585142a30.573714 30.573714 0 0 0-8.704 19.017143c0-1.097143 0-2.194286 0.585143-2.852571-0.585143 1.755429-0.585143 4.096-0.585143 5.851428v314.806858c0 17.261714 13.897143 31.158857 31.232 31.158857h0.512c17.334857 0 31.232-13.897143 31.232-31.158857v-238.592l259.364572 259.364571a31.012571 31.012571 0 0 0 43.885714 0l0.585143-0.585143a31.012571 31.012571 0 0 0 0-43.885714l-259.364572-259.364572h238.592c16.749714 0 30.573714-13.897143 30.573715-31.232z m-332.361142-23.844571c-2.194286-2.413714-5.12-4.900571-7.314286-7.314286 2.925714 0 5.12 2.413714 7.314286 7.314286z" fill="#ffffff" opacity=".65" p-id="3388"></path><path d="M657.700571 652.288c2.486857-3.803429 4.900571-3.803429 7.314286-3.803429-2.413714 0-4.827429 3.803429-7.314286 3.803429z" fill="#ffffff" opacity=".65" p-id="3389"></path><path d="M657.700571 647.606857a28.964571 28.964571 0 0 1 6.948572-1.170286 30.573714 30.573714 0 0 0-19.017143 8.630858l-0.585143 0.585142a30.573714 30.573714 0 0 0-8.704 19.017143c0-2.194286 0.585143-4.534857 1.170286-6.875428a31.963429 31.963429 0 0 1 20.187428-20.187429z m15.652572-0.585143c2.194286 2.413714 5.12 4.900571 7.314286 7.314286-2.194286-2.413714-4.388571-4.900571-7.314286-7.314286z m21.211428 13.677715c-2.194286-2.486857-4.242286-6.144-7.314285-7.314286 0.950857 1.170286 3.072 2.413714 4.096 4.827428l3.145143 2.486858z m-310.125714-297.325715a31.305143 31.305143 0 0 0 0 2.925715 35.84 35.84 0 0 1-4.534857 13.897142 7.972571 7.972571 0 0 1-1.755429 2.194286c-0.585143 0.658286-1.170286 1.828571-2.340571 2.340572l-0.585143 0.585142L373.028571 387.657143c-1.170286 0.585143-1.755429 1.170286-2.925714 1.755428h-0.585143a26.989714 26.989714 0 0 1-5.705143 2.925715 17.773714 17.773714 0 0 1-7.533714 1.682285H39.058286a31.085714 31.085714 0 0 1-31.158857-31.232v0.585143c0-17.334857 13.897143-31.158857 31.158857-31.158857h238.592L17.700571 72.850286a31.012571 31.012571 0 0 1 0-43.885715L18.285714 28.379429a31.012571 31.012571 0 0 1 43.885715 0l259.364571 259.364571V49.152c0-17.334857 13.897143-31.158857 31.158857-31.158857h0.585143c17.334857 0 31.232 13.897143 31.232 31.158857v314.221714z" fill="#ffffff" opacity=".65" p-id="3390"></path><path d="M395.483429 365.568c-6.436571-9.654857-12.873143-16.091429-19.309715-22.528l9.654857 9.654857c3.218286 6.436571 6.436571 9.654857 9.654858 12.873143z" fill="#ffffff" opacity=".65" p-id="3391"></path><path d="M395.483429 365.568c-6.436571-9.654857-12.873143-16.091429-19.309715-22.528l9.654857 9.654857c3.218286 6.436571 6.436571 9.654857 9.654858 12.873143zM393.435429 346.989714a145.554286 145.554286 0 0 0-19.309715-7.314285l9.654857 3.145142c3.218286 2.121143 6.436571 3.145143 9.654858 4.169143z m-12.873143 68.608c6.436571-1.462857 9.654857-4.388571 16.091428-7.314285l-16.091428 7.314285z m25.746285-10.971428c16.091429-6.436571 25.746286-14.628571 25.746286-21.942857 0 7.314286-12.873143 15.506286-25.746286 21.942857z m25.746286-27.428572v4.534857c3.218286-9.142857-3.218286-19.163429-19.309714-27.428571 12.873143 7.314286 19.309714 14.628571 19.309714 22.893714z" fill="#ffffff" opacity=".65" p-id="3392"></path><path d="M381.44 346.989714a48.274286 48.274286 0 0 0-7.314286-7.314285l3.657143 3.145142c1.170286 2.121143 2.413714 3.145143 3.657143 4.169143z m-6.217143 43.373715c2.925714-1.462857 4.388571-4.388571 7.314286-7.314286l-7.314286 7.314286z m4.681143-9.654858a19.748571 19.748571 0 0 0 7.314286-13.897142c0 4.681143-3.657143 9.874286-7.314286 13.897142z m8.118857-17.334857v2.925715c1.170286-5.851429-1.170286-12.141714-7.021714-17.334858 4.681143 4.608 7.021714 9.216 7.021714 14.409143z m269.677714 32.182857c2.486857 3.657143 4.900571 3.657143 7.314286 3.657143-2.413714 0-4.827429-3.657143-7.314286-3.657143z m324.022858-63.341714h-238.445715L1002.496 72.850286a31.012571 31.012571 0 0 0 0-43.885715L1002.057143 28.379429a31.012571 31.012571 0 0 0-43.885714 0L698.148571 287.744V49.152A31.085714 31.085714 0 0 0 667.062857 17.993143H666.331429a31.085714 31.085714 0 0 0-31.232 31.158857v314.806857c0 1.755429 0 4.022857 0.585142 5.851429 0-1.243429-0.585143-2.413714-0.585142-3.510857 0.585143 6.875429 3.510857 13.897143 8.704 19.017142l0.585142 0.585143c5.12 5.193143 12.141714 8.045714 19.017143 8.704-1.170286 0-2.267429 0-3.437714-0.585143 1.755429 0.585143 4.022857 0.585143 5.778286 0.585143h314.806857c17.334857 0 31.158857-13.897143 31.158857-31.232a29.403429 29.403429 0 0 0-29.988571-31.158857z m-305.517715 66.779429c2.194286-1.828571 5.12-3.657143 7.314286-7.314286-2.194286 1.828571-4.388571 5.485714-7.314286 7.314286z m10.971429-7.460572c1.024-1.097143 3.145143-2.194286 4.169143-4.242285l3.145143-3.072c-2.048 3.072-5.193143 5.12-7.314286 7.314285z" fill="#ffffff" opacity=".65" p-id="3393"></path><path d="M642.194286 377.051429c-3.730286-2.413714-3.730286-4.900571-3.730286-7.314286 0 2.413714 0 4.900571 3.657143 7.314286z" fill="#ffffff" opacity=".65" p-id="3394"></path><path d="M648.923429 417.353143c6.948571 13.458286 16.237714 20.918857 25.453714 22.381714-3.072 0-6.144-1.462857-9.216-2.925714-13.165714-7.533714-23.113143-28.379429-26.989714-52.297143a117.979429 117.979429 0 0 0 10.752 32.841143z m40.813714 22.235428c2.340571-1.828571 5.412571-3.657143 7.753143-7.314285-2.340571 1.828571-4.681143 5.485714-7.753143 7.314285z m21.942857-25.234285c-2.048 2.998857-4.169143 7.460571-7.314286 8.996571 1.097143-1.462857 3.145143-2.998857 4.169143-5.997714l3.145143-2.925714z" fill="#ffffff" p-id="3395"></path><path d="M648.923429 417.353143c6.948571 13.458286 16.237714 20.918857 25.453714 22.381714-3.072 0-6.144-1.462857-9.216-2.925714-13.165714-7.533714-23.113143-28.379429-26.989714-52.297143a117.979429 117.979429 0 0 0 10.752 32.841143z m40.813714 22.235428c2.340571-1.828571 5.412571-3.657143 7.753143-7.314285-2.340571 1.828571-4.681143 5.485714-7.753143 7.314285z m21.942857-25.234285c-2.048 2.998857-4.169143 7.460571-7.314286 8.996571 1.097143-1.462857 3.145143-2.998857 4.169143-5.997714l3.145143-2.925714z" fill="#ffffff" p-id="3396"></path></svg>
