<?xml version="1.0" standalone="no"?><!DOCTYPE svg PUBLIC "-//W3C//DTD SVG 1.1//EN" "http://www.w3.org/Graphics/SVG/1.1/DTD/svg11.dtd"><svg t="1583286618333" class="icon" viewBox="0 0 1024 1024" version="1.1" xmlns="http://www.w3.org/2000/svg" p-id="2711" xmlns:xlink="http://www.w3.org/1999/xlink" width="200" height="200"><defs><style type="text/css"></style></defs><path d="M85.333333 512c0 235.648 191.018667 426.666667 426.666667 426.666667s426.666667-191.018667 426.666667-426.666667S747.648 85.333333 512 85.333333 85.333333 276.352 85.333333 512z" fill="#FFF7D4" p-id="2712"></path><path d="M600.128 400h16a8.042667 8.042667 0 0 0 8.021333-8.021333v-31.957334a8.042667 8.042667 0 0 0-8.042666-8.021333H360.192a8.042667 8.042667 0 0 0-8.021333 8.021333v16c0 4.416 3.584 8.021333 8.021333 8.021334h223.957333c4.437333 0 8.042667 3.584 8.042667 8.021333a7.893333 7.893333 0 0 0 7.936 7.936z m-56.042667 24.021333v65.066667a8.042667 8.042667 0 0 1-11.626666 7.189333l-72.789334-36.373333a8.042667 8.042667 0 0 0-11.626666 7.189333v22.08a8.042667 8.042667 0 0 1-11.626667 7.189334l-72.789333-36.394667a8.021333 8.021333 0 0 0-11.626667 7.210667v196.8c0 4.416 3.605333 8.021333 8.021333 8.021333h303.957334a8.042667 8.042667 0 0 0 8.021333-8.021333V424.021333a8.042667 8.042667 0 0 0-8.021333-8.042666H552.106667a8.042667 8.042667 0 0 0-8.021334 8.042666z m-119.978666 167.936h-15.978667a8.042667 8.042667 0 0 1-8.021333-8.021333v-16c0-4.416 3.605333-8.021333 8.021333-8.021333h16c4.416 0 8.021333 3.605333 8.021333 8.042666v15.978667a8.042667 8.042667 0 0 1-8.042666 8.021333z m96.042666 0h-15.978666a8.042667 8.042667 0 0 1-8.021334-8.021333v-16c0-4.416 3.605333-8.021333 8.021334-8.021333h16c4.416 0 8.021333 3.605333 8.021333 8.042666v15.978667a8.042667 8.042667 0 0 1-8.042667 8.021333z m95.957334 0h-15.978667a8.042667 8.042667 0 0 1-8.021333-8.021333v-16c0-4.416 3.605333-8.021333 8.021333-8.021333h16c4.416 0 8.021333 3.605333 8.021333 8.042666v15.978667a8.042667 8.042667 0 0 1-8.042666 8.021333z m0-80.042666h-15.978667a8.042667 8.042667 0 0 1-8.021333-8.021334v-16c0-4.416 3.605333-8.021333 8.021333-8.021333h16c4.416 0 8.021333 3.626667 8.021333 8.042667v15.978666a8.042667 8.042667 0 0 1-8.042666 8.021334z" fill="#FAAD14" p-id="2713"></path></svg>