<?xml version="1.0" standalone="no"?><!DOCTYPE svg PUBLIC "-//W3C//DTD SVG 1.1//EN" "http://www.w3.org/Graphics/SVG/1.1/DTD/svg11.dtd"><svg t="1583314673675" class="icon" viewBox="0 0 1024 1024" version="1.1" xmlns="http://www.w3.org/2000/svg" p-id="1968" xmlns:xlink="http://www.w3.org/1999/xlink" width="200" height="200"><defs><style type="text/css"></style></defs><path d="M192.576 85.333333c-10.026667 0.213333-19.626667 3.989333-27.029333 10.666667A45.866667 45.866667 0 0 0 149.333333 128v768a75.093333 75.093333 0 0 0 10.816 32c9.877333 5.909333 20.970667 9.557333 32.448 10.666667h654.208a77.568 77.568 0 0 0 32.448-10.666667c8.32-8.533333 12.309333-20.266667 10.837334-32V330.666667L641.344 85.333333H192.576z" fill="#40CB9A" p-id="1969"></path><path d="M379.306667 399.722667h64.853333l75.690667 111.914666 75.690666-111.914666h64.853334L552.32 548.906667l113.536 165.205333H600.96l-81.109333-122.56-81.109334 122.56h-64.853333l113.536-165.205333z" fill="#FFFFFF" p-id="1970"></path><path d="M890.389333 332.352h-204.970666a73.6 73.6 0 0 1-31.530667-10.752c-10.517333-5.354667-10.517333-21.482667-10.517333-32.213333V85.333333l247.018666 247.018667z" fill="#48E2AB" p-id="1971"></path></svg>