<?xml version="1.0" standalone="no"?><!DOCTYPE svg PUBLIC "-//W3C//DTD SVG 1.1//EN" "http://www.w3.org/Graphics/SVG/1.1/DTD/svg11.dtd"><svg t="1583314665525" class="icon" viewBox="0 0 1024 1024" version="1.1" xmlns="http://www.w3.org/2000/svg" p-id="1848" xmlns:xlink="http://www.w3.org/1999/xlink" width="200" height="200"><defs><style type="text/css"></style></defs><path d="M512 512m-426.666667 0a426.666667 426.666667 0 1 0 853.333334 0 426.666667 426.666667 0 1 0-853.333334 0Z" fill="#FFF7D4" p-id="1849"></path><path d="M583.104 512c0-19.626667-6.933333-36.394667-20.821333-50.282667A68.522667 68.522667 0 0 0 512 440.896c-19.626667 0-36.394667 6.933333-50.282667 20.821333A68.501333 68.501333 0 0 0 440.896 512c0 19.626667 6.933333 36.394667 20.821333 50.282667a68.522667 68.522667 0 0 0 50.282667 20.821333c19.626667 0 36.394667-6.933333 50.282667-20.821333A68.522667 68.522667 0 0 0 583.104 512zM725.333333 481.706667v61.674666c0 5.354667-2.88 9.258667-7.786666 10.026667l-51.370667 7.765333-10.837333 25.28s26.517333 34.346667 29.717333 38.314667c3.2 4.010667 3.434667 9.258667 0.277333 13.333333-3.157333 4.096-41.216 42.410667-45.653333 45.994667-4.437333 3.562667-11.157333 4.373333-15.189333 1.237333l-38.314667-29.994666-25.28 10.56s-6.762667 46.464-8.064 51.648a9.898667 9.898667 0 0 1-10.005333 7.786666h-61.653334a10.133333 10.133333 0 0 1-10.005333-8.32l-7.786667-51.114666-24.981333-10.282667-39.168 29.717333a11.2 11.2 0 0 1-13.888-0.554666c-3.392-3.072-42.602667-42.538667-45.845333-46.677334-3.242667-4.117333-2.496-8.874667 0.277333-12.778666 2.773333-3.882667 29.162667-38.037333 29.162667-38.037334l-11.392-27.52s-44.949333-6.293333-50.816-7.488c-5.888-1.194667-8.064-5.226667-8.064-10.005333v-61.653333c0-5.205333 2.368-9.237333 7.509333-10.026667l51.648-7.765333 10.837333-25.557334s-26.517333-34.432-29.717333-38.336c-3.2-3.882667-3.84-9.237333-0.277333-13.034666 3.008-3.242667 45.12-43.306667 49.045333-46.784 3.904-3.456 7.978667-3.114667 11.797333-0.170667l38.314667 29.717333 25.28-10.56s5.653333-42.389333 8.064-51.648c1.28-5.184 4.629333-7.786667 10.005333-7.786666h61.653334c4.650667 0 9.173333 2.901333 10.005333 8.32l7.786667 51.114666 24.981333 10.282667s34.816-26.538667 39.466667-29.717333c4.629333-3.178667 10.453333-2.645333 13.589333 0.277333 3.157333 2.922667 42.752 43.029333 45.845333 47.232a10.346667 10.346667 0 0 1-0.277333 12.48 8293.76 8293.76 0 0 1-29.162667 38.058667l11.392 27.221333s45.290667 6.762667 50.816 7.786667c5.546667 1.024 8.064 3.712 8.064 10.005333 0 6.272 0 0 0 0z" fill="#F7B500" p-id="1850"></path></svg>