<?xml version="1.0" standalone="no"?><!DOCTYPE svg PUBLIC "-//W3C//DTD SVG 1.1//EN" "http://www.w3.org/Graphics/SVG/1.1/DTD/svg11.dtd"><svg t="1583286669323" class="icon" viewBox="0 0 1024 1024" version="1.1" xmlns="http://www.w3.org/2000/svg" p-id="3071" xmlns:xlink="http://www.w3.org/1999/xlink" width="200" height="200"><defs><style type="text/css"></style></defs><path d="M512 512m-426.666667 0a426.666667 426.666667 0 1 0 853.333334 0 426.666667 426.666667 0 1 0-853.333334 0Z" fill="#E6FFFB" p-id="3072"></path><path d="M705.92 334.656v217.429333c0 13.034667-3.2 26.026667-9.685333 38.912a182.997333 182.997333 0 0 1-25.386667 37.546667 275.925333 275.925333 0 0 1-35.882667 34.410667c-13.461333 10.816-27.093333 20.48-40.938666 28.928-13.845333 8.490667-27.285333 15.530667-40.32 21.12-13.056 5.610667-24.512 9.450667-34.346667 11.541333l-4.650667 0.789333-4.266666-0.789333c-10.069333-2.090667-21.76-5.930667-35.093334-11.52a344.96 344.96 0 0 1-41.514666-21.12 390.314667 390.314667 0 0 1-42.261334-28.949333 287.296 287.296 0 0 1-37.056-34.410667 182.549333 182.549333 0 0 1-26.346666-37.546667c-6.762667-12.906667-10.112-25.877333-10.112-38.912V334.656l15.914666-2.346667L512.384 298.666667l181.909333 33.642666 11.648 2.346667z m-193.493333-4.501333l-2.133334-0.426667-153.130666 26.24v137.173333h155.285333v-162.986666z m154.410666 162.986666h-154.389333v195.285334c9.92-2.304 20.736-5.824 32.405333-10.538667a293.034667 293.034667 0 0 0 34.56-16.768 309.482667 309.482667 0 0 0 32.853334-21.504c10.517333-7.893333 19.797333-16.362667 27.946666-25.386667 8.106667-9.024 14.549333-18.410667 19.370667-28.16 4.842667-9.749333 7.253333-19.669333 7.253333-29.696v-63.210666z" fill="#13C2C2" p-id="3073"></path></svg>