<?xml version="1.0" encoding="UTF-8"?>
<svg width="118px" height="36px" viewBox="0 0 118 36" version="1.1" xmlns="http://www.w3.org/2000/svg" xmlns:xlink="http://www.w3.org/1999/xlink">
    <!-- Generator: Sketch 56.1 (81669) - https://sketch.com -->
    <title>编组 4</title>
    <desc>Created with Sketch.</desc>
    <defs>
        <linearGradient x1="50%" y1="0%" x2="50%" y2="100%" id="linearGradient-1">
            <stop stop-color="#0080FF" offset="0%"></stop>
            <stop stop-color="#32C5FF" offset="100%"></stop>
        </linearGradient>
    </defs>
    <g id="企业端登录" stroke="none" stroke-width="1" fill="none" fill-rule="evenodd">
        <g id="密码登录" transform="translate(-380.000000, -201.000000)" fill-rule="nonzero">
            <g id="编组-4" transform="translate(380.000000, 201.058824)">
                <path d="M11.4727182,3.44684085 L12.9903578,1.92932766 L12.9903574,1.92932798 C15.5621356,-0.642748168 19.7322095,-0.643161735 22.3045312,1.92840199 C22.3048397,1.92871041 22.3051482,1.92901886 22.3054567,1.92932733 L31.0255814,10.6487262 L17.2357339,10.6487262 L17.235734,10.6487262 C14.8400355,10.6480287 12.6329863,11.9484041 11.4727182,14.044225 L11.4727182,3.44684053 L11.4727182,3.44684085 Z M3.44712783,23.8223544 L1.92948831,22.3035808 L1.92948858,22.303581 C-0.64280169,19.7320169 -0.643215291,15.5622902 1.92856262,12.9901826 C1.92887106,12.9898741 1.92917954,12.9895656 1.92948804,12.9892572 L10.6496128,4.26985832 L10.6496128,18.0585579 L10.6496125,18.0604742 C10.6496122,20.4559732 11.9507379,22.6624842 14.047072,23.8220063 L3.44711153,23.8220063 L3.44712783,23.8223544 Z M4.27021393,24.645391 L18.0600805,24.645391 L18.0600807,24.645391 C20.4557791,24.6460885 22.6628283,23.3457131 23.8230772,21.2498922 L23.8230772,31.8472767 L22.3054377,33.3647899 L22.3054379,33.3647897 C19.7336597,35.9368658 15.5635859,35.9372794 12.9912641,33.3657154 C12.9909556,33.365407 12.9906471,33.3650986 12.9903387,33.3647901 L4.27021393,24.6453912 L4.27021393,24.645391 Z M24.6461822,31.0229797 L24.6461822,17.2355405 L24.6461825,17.2336232 C24.6461825,14.8381242 23.3450571,12.6316132 21.248723,11.472091 L31.8469897,11.472091 L33.3646292,12.9896042 L33.3646291,12.9896041 C35.9369194,15.5611682 35.937333,19.7308949 33.3655548,22.3030026 C33.3652463,22.3033111 33.3649378,22.3036195 33.3646293,22.3039279 L24.6445046,31.0233268 L24.6461822,31.0229797 Z" id="形状" fill="url(#linearGradient-1)"></path>
                <path d="M58.8352941,14.3647059 L58.8352941,17.1882353 L71.6823529,17.1882353 L71.6823529,14.3647059 L58.8352941,14.3647059 Z M71.6823529,20.3647059 L58.8352941,20.3647059 L58.8352941,23.1176471 L71.6823529,23.1176471 L71.6823529,20.3647059 Z M71.6823529,26.2941176 L58.8352941,26.2941176 L58.8352941,33.6352941 L55.3764706,33.6352941 L55.3764706,16.4117647 C53.6470588,18.3882353 51.7058824,20.2588235 49.5882353,21.9882353 L47.1882353,18.8470588 C51.1764706,15.7058824 54.3176471,12.1058824 56.6470588,8.08235294 L48.1411765,8.08235294 L48.1411765,4.51764706 L58.4117647,4.51764706 C58.9411765,3.28235294 59.4,2.04705882 59.7882353,0.776470588 L63.5647059,1.23529412 C63.2117647,2.36470588 62.8588235,3.45882353 62.4705882,4.51764706 L79.3058824,4.51764706 L79.3058824,8.08235294 L60.9176471,8.08235294 C60.3529412,9.14117647 59.7882353,10.1647059 59.1882353,11.1882353 L75.1411765,11.1882353 L75.1411765,30.3176471 C75.1411765,32.3647059 73.9411765,33.3882353 71.5764706,33.4588235 L67.6235294,33.4588235 L66.7411765,30.1411765 C68.0470588,30.2470588 69.2823529,30.3176471 70.4117647,30.3176471 C71.2588235,30.3176471 71.6823529,29.9294118 71.6823529,29.1529412 L71.6823529,26.2941176 Z M106.588235,9.56470588 C106.447059,10.0588235 106.341176,10.5176471 106.2,11.0117647 C106.976471,14.5058824 107.929412,17.5764706 109.094118,20.2235294 C110.152941,17.1176471 110.752941,13.5529412 110.894118,9.56470588 L106.588235,9.56470588 Z M107.4,24 C106.270588,21.6705882 105.282353,19.0588235 104.435294,16.1647059 C103.905882,17.3294118 103.341176,18.4235294 102.776471,19.4117647 L100.482353,16.5529412 C102.423529,12.6705882 103.729412,7.48235294 104.4,0.988235294 L108,1.62352941 C107.788235,3.17647059 107.576471,4.62352941 107.329412,6 L116.152941,6 L116.152941,9.56470588 L114.211765,9.56470588 C114,15.2470588 112.976471,20.0823529 111.105882,24.1058824 C112.8,26.9294118 114.811765,29.1529412 117.141176,30.7411765 L115.094118,33.7411765 C112.905882,32.1176471 110.964706,30 109.305882,27.3882353 C107.647059,29.8588235 105.6,31.9764706 103.2,33.7058824 L101.294118,30.6 C103.835294,28.9058824 105.882353,26.7176471 107.4,24 Z M90.7058824,17.3647059 L94.1647059,17.7882353 C93.9529412,18.3176471 93.7764706,18.8470588 93.6,19.3411765 L100.694118,19.3411765 L100.694118,22.3058824 C100.094118,24.3529412 99.0352941,26.1882353 97.4823529,27.7411765 C98.8588235,28.3411765 100.2,28.9764706 101.505882,29.6823529 L99.5294118,32.5764706 C98.1882353,31.7647059 96.5647059,30.9176471 94.6588235,30.0352941 C92.3294118,31.5176471 89.4352941,32.6823529 85.9411765,33.6 L84.2470588,30.5294118 C86.7882353,29.9647059 88.9764706,29.2235294 90.8470588,28.3764706 C89.4352941,27.7764706 87.9176471,27.1764706 86.3647059,26.5764706 C87.2117647,25.1647059 87.9529412,23.7882353 88.5882353,22.4823529 L85.0941176,22.4823529 L85.0941176,19.3411765 L90,19.3411765 C90.2470588,18.6352941 90.4941176,18 90.7058824,17.3647059 Z M94.1647059,26.3647059 C95.6117647,25.2352941 96.7058824,23.9294118 97.4470588,22.4823529 L92.2235294,22.4823529 C91.7647059,23.4 91.2705882,24.2823529 90.7764706,25.1294118 C91.9058824,25.4823529 93.0352941,25.9058824 94.1647059,26.3647059 Z M88.5529412,1.51764706 C89.2941176,2.82352941 89.9647059,4.23529412 90.5294118,5.75294118 L87.9176471,6.91764706 C87.2117647,5.22352941 86.4705882,3.74117647 85.6941176,2.43529412 L88.5529412,1.51764706 Z M98.4705882,1.48235294 L101.047059,2.71764706 C100.341176,4.2 99.4588235,5.64705882 98.3647059,7.05882353 L95.7882353,5.75294118 C96.9176471,4.30588235 97.8352941,2.89411765 98.4705882,1.48235294 Z M85.1647059,7.44705882 L91.7294118,7.44705882 L91.7294118,1.05882353 L95.1176471,1.05882353 L95.1176471,7.44705882 L101.117647,7.44705882 L101.117647,10.6588235 L95.1176471,10.6588235 L95.1176471,10.7294118 C96.9529412,11.4705882 98.8235294,12.3176471 100.729412,13.2705882 L98.8235294,16.1647059 C97.3411765,15 96.1058824,14.0823529 95.1176471,13.4117647 L95.1176471,17.1176471 L91.7294118,17.1176471 L91.7294118,11.5764706 C90.5294118,13.9764706 88.6941176,16.0588235 86.1529412,17.8941176 L84.3176471,14.9294118 C86.6117647,13.6235294 88.3058824,12.2117647 89.3647059,10.6588235 L85.1647059,10.6588235 L85.1647059,7.44705882 Z" id="有数" fill-opacity="0.85" fill="#000000"></path>
            </g>
        </g>
    </g>
</svg>