<?xml version="1.0" standalone="no"?><!DOCTYPE svg PUBLIC "-//W3C//DTD SVG 1.1//EN" "http://www.w3.org/Graphics/SVG/1.1/DTD/svg11.dtd"><svg t="1585115511157" class="icon" viewBox="0 0 1024 1024" version="1.1" xmlns="http://www.w3.org/2000/svg" p-id="3514" xmlns:xlink="http://www.w3.org/1999/xlink" width="200" height="200"><defs><style type="text/css"></style></defs><path d="M903.168 25.463467s2.935467 0 0 0l-6.007467 7.304533 5.9392-7.304533z m67.106133 27.989333v0.8192a44.373333 44.373333 0 0 1-12.834133 30.3104 42.734933 42.734933 0 0 0 0-59.118933l-0.682667-0.750934a39.594667 39.594667 0 0 0-57.344 0 38.843733 38.843733 0 0 1 29.354667-13.243733h0.8192c21.845333 0 40.686933 19.456 40.686933 41.984z" fill="#ffffff" fill-opacity=".65" p-id="3515"></path><path d="M949.6576 41.915733v295.7312c0 16.384-12.970667 29.354667-29.218133 29.354667h-0.546134a29.149867 29.149867 0 0 1-29.2864-29.354667V112.64L646.485333 357.7856a29.013333 29.013333 0 0 1-41.1648 0l-0.546133-0.546133a29.2864 29.2864 0 0 1 0-41.301334l244.258133-245.213866H625.2544a29.149867 29.149867 0 0 1-29.218133-29.354667V40.823467c0-15.701333 12.970667-29.354667 29.218133-29.354667h294.638933a30.3104 30.3104 0 0 0-21.162666 9.216 29.013333 29.013333 0 0 1 41.1648 0l0.546133 0.546133a29.2864 29.2864 0 0 1 0 41.3696 28.330667 28.330667 0 0 0 9.216-20.6848z" fill="#ffffff" fill-opacity=".65" p-id="3516"></path><path d="M903.168 25.463467s2.935467 0 0 0l-6.007467 7.304533 5.9392-7.304533z m46.4896 27.989333v0.8192c0 11.605333-3.754667 22.528-9.216 30.3104a55.5008 55.5008 0 0 0 0-59.118933l-0.546133-0.750934c-11.332267-16.384-29.764267-16.384-41.1648 0 5.461333-8.6016 12.970667-13.243733 21.162666-13.243733h0.546134c15.701333 0 29.218133 19.456 29.218133 41.984zM59.392 27.0336L58.299733 25.463467C46.8992 9.079467 28.535467 9.079467 17.066667 25.463467L16.5888 26.282667c-10.24 14.7456-11.400533 38.912-2.730667 55.227733a55.773867 55.773867 0 0 1-6.485333-27.306667v-0.682666c0-3.140267 0-5.461333 0.546133-8.6016A44.373333 44.373333 0 0 1 16.110933 23.893333C21.367467 16.110933 28.4672 11.4688 36.522667 11.4688h0.546133C45.806933 11.4688 53.930667 17.681067 59.392 27.0336z" fill="#ffffff" fill-opacity=".65" p-id="3517"></path><path d="M331.229867 70.724267H107.588267l244.189866 245.213866a29.2864 29.2864 0 0 1 0 41.301334l-0.546133 0.546133a29.013333 29.013333 0 0 1-41.096533 0L65.877333 113.117867v224.597333c0 16.247467-12.970667 29.354667-29.218133 29.354667H36.113067a29.149867 29.149867 0 0 1-29.2864-29.354667V40.7552C6.826667 38.638933 6.826667 37.000533 7.3728 34.816v6.5536c0 7.099733 2.730667 13.653333 6.485333 18.432a29.832533 29.832533 0 0 1 2.730667-38.570667L17.134933 20.6848a29.013333 29.013333 0 0 1 41.1648 0L59.392 21.845333A29.559467 29.559467 0 0 0 36.6592 10.922667H36.113067h295.1168c16.247467 0 29.218133 13.038933 29.218133 29.354666v0.546134a29.354667 29.354667 0 0 1-29.218133 29.9008z" fill="#ffffff" fill-opacity=".65" p-id="3518"></path><path d="M59.392 22.3232L58.299733 21.230933a29.013333 29.013333 0 0 0-41.1648 0L16.5888 21.845333a29.832533 29.832533 0 0 0-2.730667 38.638934 30.037333 30.037333 0 0 1-6.485333-19.0464V40.823467c0-2.184533 0-3.822933 0.546133-6.007467a26.487467 26.487467 0 0 1 8.192-14.677333 28.603733 28.603733 0 0 1 20.48-8.669867h0.546134a29.354667 29.354667 0 0 1 22.254933 10.922667zM936.618667 903.168l3.2768 3.208533a29.2864 29.2864 0 0 1 0 41.3696l-0.546134 0.546134a29.218133 29.218133 0 0 1-20.002133 8.669866H624.64a29.149867 29.149867 0 0 1-29.218133-29.354666v-0.546134c0-16.315733 12.970667-29.354667 29.218133-29.354666h223.163733L604.16 652.970667a29.2864 29.2864 0 0 1 0-41.301334l0.546133-0.546133a29.013333 29.013333 0 0 1 41.1648 0l244.189867 245.213867V631.261867c0-16.384 12.970667-29.354667 29.2864-29.354667h0.546133c16.247467 0 29.218133 12.970667 29.218134 29.354667v295.7312a27.989333 27.989333 0 0 0-12.424534-23.893334z" fill="#ffffff" fill-opacity=".65" p-id="3519"></path><path d="M949.6576 927.5392v0.546133c0 16.315733-12.970667 29.354667-29.218133 29.354667h-0.546134a42.052267 42.052267 0 0 1-11.400533-2.184533 30.72 30.72 0 0 0 31.402667-6.485334l0.546133-0.546133a29.2864 29.2864 0 0 0 0-41.3696l-3.208533-3.208533c7.031467 4.846933 12.424533 13.585067 12.424533 23.893333z" fill="#ffffff" fill-opacity=".65" p-id="3520"></path><path d="M949.6576 935.799467v0.682666c0 21.981867-12.970667 39.594667-29.218133 39.594667h-0.546134c-3.822933 0-7.5776-1.501867-11.400533-3.003733 10.24 5.12 22.7328 2.2528 31.402667-8.738134l0.546133-0.682666a49.5616 49.5616 0 0 0 0-55.637334l-3.208533-4.369066a44.509867 44.509867 0 0 1 12.424533 32.1536zM59.392 962.1504c-5.461333 8.738133-13.585067 14.609067-22.7328 14.609067H36.113067c-3.2768 0-6.007467-0.682667-8.669867-1.4336-9.216-3.6864-16.247467-13.9264-18.978133-25.6-1.092267-3.6864-1.092267-7.3728-1.092267-11.741867v-0.682667c0-9.557333 2.730667-18.295467 6.485333-24.917333a51.063467 51.063467 0 0 0 2.730667 51.882667l0.546133 0.8192c11.400533 15.36 29.764267 15.36 41.1648 0l1.092267-2.935467z" fill="#ffffff" fill-opacity=".65" p-id="3521"></path><path d="M360.448 928.085333v0.546134c0 16.315733-12.970667 29.354667-29.218133 29.354666H36.113067a22.391467 22.391467 0 0 1-8.669867-1.6384c2.730667 1.092267 5.393067 1.092267 8.669867 1.092267h0.546133a29.559467 29.559467 0 0 0 22.7328-10.922667l-1.092267 1.160534a29.013333 29.013333 0 0 1-41.1648 0l-0.546133-0.546134a29.832533 29.832533 0 0 1-2.730667-38.638933 27.511467 27.511467 0 0 0-6.485333 18.500267v0.546133c0 3.2768 0.546133 6.007467 1.092267 8.669867a24.712533 24.712533 0 0 1-1.6384-8.669867v-296.277333c0-16.384 12.970667-29.354667 29.2864-29.354667h0.546133c16.247467 0 29.218133 12.970667 29.218133 29.354667v224.529066l244.258134-245.213866a29.013333 29.013333 0 0 1 41.096533 0l0.546133 0.546133a29.2864 29.2864 0 0 1 0 41.301333L107.588267 897.706667h223.6416a30.856533 30.856533 0 0 1 29.218133 30.446933z" fill="#ffffff" fill-opacity=".65" p-id="3522"></path><path d="M59.392 947.131733a29.559467 29.559467 0 0 1-22.7328 10.8544H36.113067a41.915733 41.915733 0 0 1-8.669867-1.092266 28.8768 28.8768 0 0 1-18.978133-19.0464c-1.092267-2.730667-1.092267-5.461333-1.092267-8.669867v-0.546133c0-7.099733 2.730667-13.653333 6.485333-18.432a29.9008 29.9008 0 0 0 2.730667 38.570666l0.546133 0.546134a29.013333 29.013333 0 0 0 41.1648 0l1.092267-2.184534z" fill="#ffffff" fill-opacity=".65" p-id="3523"></path></svg>
