<?xml version="1.0" standalone="no"?><!DOCTYPE svg PUBLIC "-//W3C//DTD SVG 1.1//EN" "http://www.w3.org/Graphics/SVG/1.1/DTD/svg11.dtd"><svg t="1583286611466" class="icon" viewBox="0 0 1024 1024" version="1.1" xmlns="http://www.w3.org/2000/svg" p-id="2591" xmlns:xlink="http://www.w3.org/1999/xlink" width="200" height="200"><defs><style type="text/css"></style></defs><path d="M512 512m-426.666667 0a426.666667 426.666667 0 1 0 853.333334 0 426.666667 426.666667 0 1 0-853.333334 0Z" fill="#E6F7FF" p-id="2592"></path><path d="M512 298.666667c-29.44 0-57.152 1.728-83.136 5.226666-25.962667 3.456-48.576 8.234667-67.904 14.357334-19.328 6.122667-34.517333 13.205333-45.632 21.269333-11.114667 8.042667-16.661333 16.64-16.661333 25.813333V405.333333l160 160v133.333334c0 7.488 5.205333 13.824 15.637333 18.965333 10.410667 5.141333 22.976 7.701333 37.696 7.701333s27.285333-2.56 37.696-7.701333c10.432-5.141333 15.637333-11.477333 15.637333-18.965333V565.333333L725.333333 405.333333v-40c0-9.173333-5.546667-17.792-16.661333-25.834666-11.114667-8.064-26.304-15.146667-45.632-21.248-19.285333-6.122667-41.962667-10.901333-67.904-14.357334A628.053333 628.053333 0 0 0 512 298.666667z m-177.728 51.498666c5.098667-2.474667 11.2-4.949333 18.304-7.424 7.04-2.474667 14.848-4.693333 23.36-6.634666a483.818667 483.818667 0 0 1 63.146667-10.197334A771.413333 771.413333 0 0 1 512 322.346667a744.064 744.064 0 0 1 72.917333 3.52c11.498667 1.109333 22.506667 2.538667 33.173334 4.266666 10.624 1.706667 20.629333 3.690667 29.973333 5.930667 8.512 1.962667 16.298667 4.181333 23.36 6.656 7.125333 2.474667 13.226667 4.949333 18.304 7.424 3.114667 1.706667 5.674667 3.264 7.658667 4.608 1.962667 1.365333 3.392 2.432 4.245333 3.157333a50.56 50.56 0 0 1-4.266667 3.157334c-2.474667 1.642667-5.013333 3.2-7.637333 4.608-5.952 2.837333-12.053333 5.312-18.304 7.424-7.68 2.624-15.466667 4.842667-23.36 6.634666a483.818667 483.818667 0 0 1-63.146667 10.197334 771.413333 771.413333 0 0 1-72.917333 3.541333 744.064 744.064 0 0 1-72.917333-3.52 520.384 520.384 0 0 1-33.173334-4.266667 421.866667 421.866667 0 0 1-29.973333-5.930666c-7.893333-1.792-15.701333-4.010667-23.36-6.656a173.376 173.376 0 0 1-18.304-7.424 97.898667 97.898667 0 0 1-7.658667-4.608 50.56 50.56 0 0 1-4.245333-3.157334c0.853333-0.725333 2.282667-1.792 4.266667-3.157333 2.474667-1.642667 5.013333-3.2 7.637333-4.608z" fill="#0091FF" p-id="2593"></path></svg>