<?xml version="1.0" standalone="no"?><!DOCTYPE svg PUBLIC "-//W3C//DTD SVG 1.1//EN" "http://www.w3.org/Graphics/SVG/1.1/DTD/svg11.dtd"><svg t="1583286644783" class="icon" viewBox="0 0 1024 1024" version="1.1" xmlns="http://www.w3.org/2000/svg" p-id="2951" xmlns:xlink="http://www.w3.org/1999/xlink" width="200" height="200"><defs><style type="text/css"></style></defs><path d="M512 512m-426.666667 0a426.666667 426.666667 0 1 0 853.333334 0 426.666667 426.666667 0 1 0-853.333334 0Z" fill="#FFF1F0" p-id="2952"></path><path d="M778.666667 512c0 13.333333-10.474667 23.808-23.808 23.808A23.573333 23.573333 0 0 1 731.050667 512C730.090667 392 632.96 293.909333 512 293.909333a23.573333 23.573333 0 0 1-23.808-23.808c0-13.333333 10.474667-24.768 23.808-24.768 147.626667 0 266.666667 120 266.666667 266.666667zM379.626667 280.576a24.618667 24.618667 0 0 1 33.322666 8.576c6.677333 11.413333 2.858667 26.666667-8.576 33.322667-67.626667 39.04-110.464 110.485333-110.464 189.525333 0 39.04 10.453333 75.242667 28.586667 108.586667 6.656 11.413333 2.837333 26.666667-8.597333 33.322666a24.618667 24.618667 0 0 1-33.322667-8.576C257.706667 604.373333 245.333333 559.616 245.333333 512c0-96.192 52.373333-183.808 134.293334-231.424z m-1.92 461.909333a24.618667 24.618667 0 0 1-8.554667-33.344 24.618667 24.618667 0 0 1 33.322667-8.576A219.477333 219.477333 0 0 0 512 730.090667c79.04 0 149.525333-41.898667 188.586667-108.586667a24.618667 24.618667 0 0 1 33.322666-8.533333c11.413333 6.656 15.232 21.888 8.576 33.322666C695.808 728.192 608.192 778.666667 512 778.666667c-47.616 0-93.333333-12.373333-134.293333-36.181334zM512 633.898667a121.130667 121.130667 0 0 1-120.96-120.96c0-66.645333 54.293333-121.898667 120.96-121.898667s121.898667 54.293333 121.898667 120.96S579.626667 633.898667 512 633.898667z" fill="#FF4D4F" p-id="2953"></path></svg>