<?xml version="1.0" standalone="no"?><!DOCTYPE svg PUBLIC "-//W3C//DTD SVG 1.1//EN" "http://www.w3.org/Graphics/SVG/1.1/DTD/svg11.dtd"><svg t="1583458932179" class="icon" viewBox="0 0 1024 1024" version="1.1" xmlns="http://www.w3.org/2000/svg" p-id="2808" xmlns:xlink="http://www.w3.org/1999/xlink" width="200" height="200"><defs><style type="text/css"></style></defs><path d="M500.608 151.317333c12.778667 0 21.546667 2.965333 24.618667 4.757334l277.333333 157.056c11.306667 6.4 24.64 29.056 24.64 41.834666v314.090667c0 12.8-13.333333 35.413333-24.64 41.834667l-277.333333 157.077333c-3.072 1.749333-11.84 4.8-24.618667 4.8-12.757333 0-21.546667-2.965333-24.597333-4.757333L198.570667 710.954667c-11.264-6.4-24.597333-29.056-24.597334-41.834667V354.965333c0-12.8 13.333333-35.413333 24.597334-41.813333l277.333333-157.077333c7.765333-3.413333 16.213333-5.056 24.704-4.757334z m0-65.984c-21.12 0-42.24 4.565333-58.24 13.610667L164.970667 256.021333C132.949333 274.133333 106.666667 318.656 106.666667 354.965333v314.090667c0 36.266667 26.24 80.810667 58.282666 98.965333l277.333334 157.056c16 9.066667 37.12 13.589333 58.24 13.589334s42.24-4.565333 58.24-13.589334l277.333333-157.056c32-18.133333 58.261333-62.656 58.261333-98.965333V354.986667c0-36.266667-26.24-80.810667-58.24-98.944L558.869333 98.986667c-16.021333-9.109333-37.12-13.674667-58.24-13.674667z m241.749333 269.226667c-5.888 0-11.690667 1.557333-16.789333 4.416L483.52 523.946667a32.682667 32.682667 0 0 0-10.965333 44.309333c8.96 15.274667 28.608 20.949333 44.586666 12.885333l242.048-164.906666c13.226667-7.466667 19.733333-22.72 15.786667-37.184a33.536 33.536 0 0 0-32.618667-24.490667v0.042667z m-483.498666 0.533333a33.493333 33.493333 0 0 0-32.661334 24.405334 32.682667 32.682667 0 0 0 15.829334 37.141333l242.048 164.949333a33.92 33.92 0 0 0 45.866666-12.117333 32.64 32.64 0 0 0-12.309333-45.013333l-242.026667-164.928a33.984 33.984 0 0 0-16.746666-4.437334z m241.472 165.205334c-18.56 0-33.621333 14.762667-33.621334 32.981333V776.96c0 18.218667 15.061333 32.981333 33.621334 32.981333 18.56 0 33.664-14.762667 33.664-32.981333V553.28c0-18.218667-15.082667-32.981333-33.642667-32.981333h-0.021333z" fill="#000000" fill-opacity=".65" p-id="2809"></path></svg>