<?xml version="1.0" standalone="no"?><!DOCTYPE svg PUBLIC "-//W3C//DTD SVG 1.1//EN" "http://www.w3.org/Graphics/SVG/1.1/DTD/svg11.dtd"><svg t="1586843381996" class="icon" viewBox="0 0 1024 1024" version="1.1" xmlns="http://www.w3.org/2000/svg" p-id="3715" xmlns:xlink="http://www.w3.org/1999/xlink" width="200" height="200"><defs><style type="text/css"></style></defs><path d="M512 512m-426.666667 0a426.666667 426.666667 0 1 0 853.333334 0 426.666667 426.666667 0 1 0-853.333334 0Z" fill="#E6F7FF" p-id="3716"></path><path d="M733.674667 499.242667c16.981333-17.386667 17.322667-45.866667 1.002666-63.594667a41.408 41.408 0 0 0-24.981333-13.226667l-86.912-13.205333c-13.994667-2.069333-26.325333-11.456-32.64-24.661333l-38.976-82.026667c-10.666667-22.250667-36.629333-31.637333-58.261333-20.501333-8.32 4.522667-15.338667 11.456-19.648 20.501333l-38.976 82.026667c-6.314667 13.205333-18.645333 22.592-32.64 24.661333l-87.253334 13.226667c-23.637333 3.456-39.957333 26.410667-36.629333 51.072 1.344 9.749333 5.674667 19.114667 12.650667 26.069333l62.933333 63.957333c10.346667 10.432 14.997333 25.386667 12.330667 39.957334l-14.976 90.368c-3.989333 24.682667 11.989333 47.957333 35.626666 52.138666 9.322667 1.728 18.986667 0 27.306667-4.522666l77.930667-42.752a41.536 41.536 0 0 1 40.298666 0l77.930667 42.752c21.312 11.477333 47.296 3.136 58.602667-19.114667 4.330667-8.682667 5.994667-18.773333 4.330666-28.501333l-14.976-90.368c-2.346667-14.592 2.325333-29.525333 12.309334-39.957334l63.616-64.298666z m-121.557334-4.522667l-84.266666 103.573333a33.408 33.408 0 0 1-47.616 4.522667l-50.944-43.456a18.88 18.88 0 0 1-2.346667-26.048 17.066667 17.066667 0 0 1 24.981333-2.432l49.962667 42.730667 83.584-102.528a17.301333 17.301333 0 0 1 24.981333-1.728c6.656 6.250667 7.68 17.706667 1.664 25.386666z" fill="#0080FF" p-id="3717"></path></svg>