<?xml version="1.0" standalone="no"?><!DOCTYPE svg PUBLIC "-//W3C//DTD SVG 1.1//EN" "http://www.w3.org/Graphics/SVG/1.1/DTD/svg11.dtd"><svg t="1583127752380" class="icon" viewBox="0 0 1024 1024" version="1.1" xmlns="http://www.w3.org/2000/svg" p-id="2354" xmlns:xlink="http://www.w3.org/1999/xlink" width="200" height="200"><defs><style type="text/css"></style></defs><path d="M512 512m-426.666667 0a426.666667 426.666667 0 1 0 853.333334 0 426.666667 426.666667 0 1 0-853.333334 0Z" fill="#EAF0FF" p-id="2355"></path><path d="M474.602667 532.821333v36.053334c0 15.722667 13.824 28.458667 30.912 28.458666 17.066667 0 30.912-12.736 30.912-28.437333v-36.053333c29.568-15.722667 39.68-50.517333 22.613333-77.717334-17.066667-27.221333-54.869333-36.544-84.437333-20.821333-29.589333 15.701333-39.701333 50.496-22.634667 77.696 5.418667 8.661333 13.226667 15.829333 22.613333 20.821333zM320 381.952L505.514667 298.666667l185.493333 83.285333v164.096c0 60.736-36.586667 115.669333-93.12 139.818667L505.514667 725.333333l-92.373334-39.466666C356.565333 661.717333 320 606.784 320 546.048v-164.096z" fill="#2A6BFF" p-id="2356"></path></svg>