<?xml version="1.0" standalone="no"?><!DOCTYPE svg PUBLIC "-//W3C//DTD SVG 1.1//EN" "http://www.w3.org/Graphics/SVG/1.1/DTD/svg11.dtd"><svg t="1583286707510" class="icon" viewBox="0 0 1024 1024" version="1.1" xmlns="http://www.w3.org/2000/svg" p-id="3432" xmlns:xlink="http://www.w3.org/1999/xlink" width="200" height="200"><defs><style type="text/css"></style></defs><path d="M85.333333 512c0 235.648 191.018667 426.666667 426.666667 426.666667s426.666667-191.018667 426.666667-426.666667S747.648 85.333333 512 85.333333 85.333333 276.352 85.333333 512z" fill="#F5EEFD" p-id="3433"></path><path d="M426.666667 546.133333c4.202667-1.28 8.277333-2.986667 12.117333-5.12 6.997333-5.12 13.824-13.824 0-25.941333-44.885333-65.706667-29.354667-108.885333-22.528-124.586667a62.122667 62.122667 0 0 0-18.944-3.413333h-1.706667a56.832 56.832 0 0 0-55.296 60.586667 86.698667 86.698667 0 0 0 31.061334 72.704c1.301333 3.306667 1.877333 6.869333 1.706666 10.410666a18.261333 18.261333 0 0 1-3.413333 8.704c-17.066667 13.824-76.117333 29.354667-81.237333 60.586667a129.706667 129.706667 0 0 0 0 25.941333 187.733333 187.733333 0 0 0 41.472 13.824s1.706667-8.704 5.12-20.821333c1.706667-17.066667 27.648-48.469333 91.648-72.704V546.133333z m307.2 53.589334c-3.413333-31.061333-65.706667-44.885333-82.944-60.586667a18.261333 18.261333 0 0 1-3.413334-8.704c0-8.704 1.706667-10.410667 1.706667-10.410667a81.749333 81.749333 0 0 0 31.061333-72.704c-1.706667-22.528-13.824-60.586667-57.002666-60.586666h-1.706667a43.178667 43.178667 0 0 0-22.528 5.12c8.704 31.061333 20.821333 86.528-25.941333 122.709333-17.066667 25.941333 41.472 43.178667 32.938666 38.058667 53.589333 24.234667 69.12 43.178667 72.704 62.293333 3.413333 15.530667 5.12 25.941333 5.12 25.941333 17.493333-2.858667 34.645333-7.488 51.2-13.824a76.970667 76.970667 0 0 0-1.706666-27.648l0.512 0.341334z" fill="#934DE4" p-id="3434"></path><path d="M540.672 541.354667a24.576 24.576 0 0 1-3.413333-10.410667c-0.362667-4.693333 0.213333-9.386667 1.706666-13.824 0 0 39.765333-22.186667 39.765334-90.453333-1.706667-27.648-17.066667-76.117333-69.12-76.117334h-3.413334c-53.589333 0-69.12 48.469333-69.12 76.117334a106.837333 106.837333 0 0 0 39.765334 89.941333c3.584 4.352 5.397333 9.898667 5.12 15.530667a15.36 15.36 0 0 1-6.997334 8.704c-22.528 17.066667-102.4 36.352-107.178666 74.410666-3.413333 15.530667-27.648 41.472 51.2 51.2 30.378667 3.968 61.013333 5.674667 91.648 5.12 183.296 0 145.237333-36.352 140.117333-57.002666-6.997333-38.058667-88.234667-57.002667-110.762667-74.410667l0.682667 1.194667z" fill="#934DE4" p-id="3435"></path></svg>