
<svg width="44px" height="40px" viewBox="0 0 44 40" version="1.1" xmlns="http://www.w3.org/2000/svg" xmlns:xlink="http://www.w3.org/1999/xlink">
    <g id="企业管理" stroke="none" stroke-width="1" fill="none" fill-rule="evenodd">
        <g id="企业库名单-企业用户" transform="translate(-811.000000, -150.000000)" fill-rule="nonzero">
            <g id="编组-5" transform="translate(811.000000, 150.000000)">
                <g id="头像" transform="translate(6.000000, 0.000000)">
                    <path d="M0,16.0000186 C0,24.8364977 7.16353959,32.0000372 16.0000186,32.0000372 C24.8364977,32.0000372 32.0000372,24.8364977 32.0000372,16.0000186 C32.0000372,7.16353959 24.8364977,0 16.0000186,0 C7.16353959,0 0,7.16353959 0,16.0000186 Z" id="路径" fill="#E2EAF0"></path>
                    <path d="M5.5424127,28.1100952 L5.5424127,28.1100951 C7.3270118,26.3315992 9.74388649,25.3331106 12.2633894,25.3334542 L19.4733041,25.3334542 L19.4733037,25.3334542 C22.052088,25.3332206 24.5206534,26.3791649 26.3142815,28.2320171 L26.3142815,28.2320162 C23.4311719,30.670294 19.7759301,32.0056143 16.0000507,32.0000381 C12.0019836,32.0000381 8.34660433,30.5334595 5.5424127,28.1101098 L5.5424127,28.1100952 Z" id="路径" fill="#B8C7D4"></path>
                    <path d="M19.6016241,25.3344045 C19.6016241,27.3958444 17.9299365,29.0675338 15.8684872,29.0675338 C13.8067254,29.0675338 12.1350454,27.3958538 12.1350454,25.3344045 L12.2630455,25.3334445 L19.4733039,25.3334445 C19.515864,25.3334445 19.558744,25.3334445 19.6013041,25.3344045 L19.6016241,25.3344045 L19.6016241,25.3344045 Z" id="路径" fill="#D0DFEB"></path>
                    <path d="M14.2684854,20.0000232 L17.4684891,20.0000232 L17.4684891,20.0000232 C18.0575336,20.0000232 18.5350497,20.4775395 18.5350497,21.0665839 L18.5350497,25.3334639 L18.5350497,25.3334639 C18.5350497,26.8062531 17.3411171,28.0001857 15.8683279,28.0001857 C14.3955387,28.0001857 13.201606,26.8062531 13.201606,25.3334639 L13.201606,21.0665839 L13.201606,21.0665839 C13.201606,20.4775394 13.6791222,20.0000232 14.2681667,20.0000232 C14.26838,20.0000232 14.2685934,20.0000232 14.2688068,20.0000232 L14.2684854,20.0000232 Z" id="路径" fill="#FFFFFF"></path>
                    <path d="M21.8112129,17.0272073 L21.7664128,17.5465673 C21.5100928,20.592649 18.9625721,22.9341048 15.9056248,22.9341048 C12.8489837,22.9341048 10.302087,20.5926646 10.0451492,17.5465673 L10.0038691,17.0601667 L10.0038691,17.0601667 C9.26999327,17.1220227 8.62492377,16.5772412 8.56306745,15.8433653 C8.50121144,15.1094895 9.04599301,14.46442 9.77986887,14.4025636 L9.71810879,13.6665628 C9.42946877,10.2489651 11.9661114,7.24414906 15.3833966,6.95521122 L15.3833969,6.9552112 C15.5572096,6.94076578 15.7315442,6.93345117 15.9059569,6.93345117 L22.0832453,6.93345117 L22.0832453,6.93345117 C22.3778563,6.93345117 22.6168022,7.17202276 22.6169428,7.46663311 C22.61695,7.48156512 22.6163303,7.49649086 22.6150852,7.51137097 L22.0320439,14.4032227 L22.0320438,14.4032227 C22.7664541,14.3486046 23.4060892,14.8996858 23.460708,15.6340961 C23.5153262,16.3685063 22.9642449,17.0081414 22.2298347,17.0627602 C22.0888792,17.0732431 21.9471534,17.0612482 21.8099654,17.0272249 L21.8112454,17.0272249 L21.8112129,17.0272073 Z" id="路径" fill="#FFFFFF"></path>
                    <path d="M13.8665786,18.1334586 L18.1334586,18.1334586 L18.1334586,18.1334586 C18.1334586,19.3117256 17.1782856,20.2668986 16.0000186,20.2668986 C14.8217516,20.2668986 13.8665786,19.3117256 13.8665786,18.1334586 Z" id="路径" fill="#D0DFEB"></path>
                </g>
                <g id="主管" transform="translate(0.000000, 28.000000)">
                    <path d="M27.5002829,0.687496415 L43.9942208,0.687496415 L41.5549419,5.14943114 L43.993536,9.62510815 L27.5002829,9.62510815 L27.5002828,9.62510815 C26.7408826,9.62510815 26.125263,9.00949312 26.125263,8.2500883 C26.125263,8.2500883 26.125263,8.25008828 26.125263,8.25008828 L26.125263,2.06251606 L26.125263,2.06251627 C26.125263,1.30311601 26.740878,0.687496415 27.5002828,0.687496415 C27.5002828,0.687496415 27.5002829,0.687496415 27.5002829,0.687496415 L27.5002829,0.687496415 Z M16.4939721,0.687496218 L3.42411e-05,0.687496218 L2.43931314,5.14943114 L3.42411e-05,9.62510815 L16.4939721,9.62510815 L16.4939721,9.62510815 C17.2533723,9.62510815 17.8689919,9.00949312 17.8689919,8.2500883 C17.8689919,8.2500883 17.8689919,8.25008829 17.8689919,8.25008829 L17.8689919,2.06251607 L17.8689919,2.06251607 C17.8689919,1.30311581 17.2533769,0.687496218 16.4939721,0.687496218 L16.4939721,0.687496218 Z" id="形状" fill="#E62E2E"></path>
                    <path d="M4.81247247,0.687507644 L39.1878775,0.687507644 L37.8774934,10.3126124 C37.7743673,11.0723082 37.1391103,11.6876322 36.45917,11.6876322 L7.5418762,11.6876322 C6.86193128,11.6876322 6.22736037,11.0723128 6.12355277,10.3126124 L4.81247247,0.687507644 L4.81247247,0.687507644 Z" id="路径" fill="#F86666"></path>
                    <path d="M17.5782394,4.18554075 L14.5092096,4.18554075 L14.5092096,3.59978396 L17.6277406,3.59978396 L17.6277405,3.5997837 C17.4880106,3.16720447 17.3170596,2.74534156 17.1162344,2.33751979 L17.6937402,2.1807686 C17.8999926,2.65102331 18.0567438,3.08002891 18.1722459,3.47602952 L17.8504926,3.59978142 L21.2495267,3.59978142 L21.2495267,4.18553821 L18.1804969,4.18553821 L18.1804969,6.13255564 L20.8535283,6.13255564 L20.8535283,6.685312 L18.1804969,6.685312 L18.1804969,8.89633972 L21.5382819,8.89633972 L21.5382819,9.48209651 L14.2204566,9.48209651 L14.2204566,8.89633972 L17.5782416,8.89633972 L17.5782416,6.685312 L14.9052101,6.685312 L14.9052101,6.13255564 L17.5782416,6.13255564 L17.5782416,4.18553821 L17.5782394,4.18554075 Z M28.4848629,5.45605677 L28.4848629,7.07306989 L24.3680669,7.07306989 L24.3680669,7.64232589 L28.8643684,7.64232589 L28.8643684,9.76260329 L28.2786117,9.76260329 L28.2786117,9.41609934 L24.3680726,9.41609934 L24.3680726,9.75435347 L23.774066,9.75435347 L23.774066,5.45605677 L28.4848652,5.45605677 L28.4848629,5.45605677 Z M24.3680669,8.88809929 L28.2786059,8.88809929 L28.2786059,8.1208407 L24.3680669,8.1208407 L24.3680669,8.88809929 Z M24.3680669,6.59457334 L27.9073525,6.59457334 L27.9073525,5.93456587 L24.3680669,5.93456587 L24.3680669,6.59457334 Z M29.6233795,4.45780315 L29.6233795,5.95106894 L29.0458737,5.95106894 L29.0458737,4.96930812 L23.20481,4.96930812 L23.20481,5.95106894 L22.6273041,5.95106894 L22.6273041,4.45780315 L25.8943388,4.45780315 C25.8118378,4.25980057 25.7293366,4.08654859 25.6385863,3.92154758 L26.2160921,3.82254652 L26.1665916,3.7895462 C26.5625956,3.29454088 26.8430987,2.7582853 27.0246005,2.16428097 L27.5938565,2.28803288 C27.536106,2.46128485 27.4783556,2.62628701 27.4123547,2.79128802 L29.796631,2.79128802 L29.796631,3.31104395 L28.3281101,3.31104395 C28.5013621,3.54204696 28.6416137,3.75654919 28.7406149,3.95455064 L28.2126092,4.15255322 L28.2126093,4.15255342 C28.0650016,3.85699908 27.8910454,3.57535576 27.6928534,3.31104414 L27.1730974,3.31104414 L27.1730973,3.31104437 C27.0247923,3.5869135 26.8565966,3.85161546 26.6698422,4.10305357 L26.2243369,3.8308003 C26.3150879,4.02055192 26.4058387,4.22680432 26.4883404,4.45780734 L29.6233756,4.45780734 L29.6233795,4.45780315 Z M23.6173079,3.31104589 C23.4193054,3.63279923 23.2048031,3.92980311 22.9573005,4.20205524 L22.4375445,3.87205207 L22.4375445,3.87205184 C22.9167992,3.38268717 23.2878266,2.79803865 23.5265567,2.15603629 L24.0958127,2.27978819 C24.0298119,2.46128999 23.9555611,2.62629214 23.8895603,2.79129429 L26.100588,2.79129429 L26.100588,3.31105022 L24.7145768,3.31105022 C24.8960786,3.55855288 25.0528309,3.79780572 25.1683318,4.02055777 L24.6238253,4.22681018 C24.4753239,3.91330666 24.2938221,3.60805296 24.0875697,3.31105022 L23.617315,3.31105022 L23.6173079,3.31104589 Z" id="形状" fill="#FFFFFF"></path>
                    <polygon id="路径" fill="#FFFFFF" points="4.81255236 0 39.1878775 0 39.1878775 0.687507644 4.81255236 0.687507644"></polygon>
                </g>
            </g>
        </g>
    </g>
</svg>