<?xml version="1.0" standalone="no"?><!DOCTYPE svg PUBLIC "-//W3C//DTD SVG 1.1//EN" "http://www.w3.org/Graphics/SVG/1.1/DTD/svg11.dtd"><svg t="1587089964616" class="icon" viewBox="0 0 1024 1024" version="1.1" xmlns="http://www.w3.org/2000/svg" p-id="4184" xmlns:xlink="http://www.w3.org/1999/xlink" width="200" height="200"><defs><style type="text/css"></style></defs><path d="M512 512m-426.666667 0a426.666667 426.666667 0 1 0 853.333334 0 426.666667 426.666667 0 1 0-853.333334 0Z" fill="#E6F7FF" p-id="4185"></path><path d="M767.893333 504.234667v-194.304c0-32.213333-31.637333-32.597333-31.637333-32.597334l-193.642667 1.28c-15.274667 0-23.552 8.96-23.552 8.96L265.002667 540.778667C256 549.824 256 563.370667 256 563.370667c0 12.736 8.533333 22.08 8.533333 22.08l195.690667 194.901333c9.557333 9.514667 22.442667 8.96 22.442667 8.96 15.253333 0 23.338667-9.322667 23.338666-9.322667l253.013334-252.309333c10.666667-8.661333 8.874667-23.445333 8.874666-23.445333zM483.157333 735.168l-173.610666-172.437333 35.306666-34.197334 172.629334 172.437334-34.346667 34.197333z m140.181334-281.493333a32.234667 32.234667 0 0 1-32.298667-32.170667c0-17.770667 14.464-32.192 32.298667-32.192 17.856 0 32.32 14.421333 32.32 32.192 0 17.770667-14.464 32.170667-32.32 32.170667z" fill="#0080FF" p-id="4186"></path></svg>