<?xml version="1.0" standalone="no"?><!DOCTYPE svg PUBLIC "-//W3C//DTD SVG 1.1//EN" "http://www.w3.org/Graphics/SVG/1.1/DTD/svg11.dtd"><svg t="1584604785992" class="icon" viewBox="0 0 2620 1024" version="1.1" xmlns="http://www.w3.org/2000/svg" p-id="2879" xmlns:xlink="http://www.w3.org/1999/xlink" width="511.71875" height="200"><defs><style type="text/css"></style></defs><path d="M1033.39670583 453.51733021l-339.93052069 65.79300306 230.27551437 296.06851864-142.55150907 98.68950582-186.41351111-328.96502018-186.41351111 328.96502018-142.55150786-98.68950582 230.27551315-296.06851864-339.93051946-65.79300306 54.82750255-164.48251009 317.99951967 120.62050682L507.05267404 36.82830473h186.4135111l-32.89650152 372.82702221 317.99951844-120.62050682 54.82750377 164.48251009z" fill="#1890FF" p-id="2880"></path><path d="M1651.70473645 494.89381876v-21.05376161c0-5.73861251-4.3130965-10.38067424-9.64964079-10.38067302l-299.17540929 0.21931015c-5.33654308 0-9.61308869 4.60551085-9.61308868 10.38067303v23.0275518c0 4.64206173 3.50896006 8.40688404 7.78550445 8.40688405l301.03954561-0.21931016c5.2999922 0 9.61308869-4.64206173 9.6130887-10.38067424m-318.51124296-129.50256207v27.85237159c0 4.64206173 3.50896006 8.40688404 7.82205777 8.40688405l302.83057653-0.21931016c4.3130965 0 7.82205657-3.76482233 7.82205656-8.40688405l-0.03655209-13.15860085a23.4661709 23.4661709 0 0 0-6.03102444-16.63101004 19.37238457 19.37238457 0 0 0-14.73032283-6.46964474l-289.89128582 0.18275805c-4.3130965 0.0365521-7.78550567 3.80137321-7.78550568 8.44343615m-152.4204588 23.75858404l78.07436451-144.59840224-61.7723197 0.03655209c-4.3130965 0-7.82205657-3.76482233-7.82205778-8.40688404l-0.0365521-53.84060808c0-4.64206173 3.47240797-8.40688404 7.82205777-8.40688404l99.89571047-0.07310299 11.11170768-20.9806574a7.6758506 7.6758506 0 0 1 6.76205909-4.23999352l72.3723041-0.07310419c5.95792145 0 9.72274378 6.98136925 6.76205909 12.57377457l-6.68895611 12.68342846 358.13325149-0.25586105c4.3130965 0 7.78550567 3.76482233 7.78550567 8.40688405v53.84060807c0 4.64206173-3.43585709 8.40688404-7.74895357 8.44343493l-396.25664224 0.21931016-22.73513745 42.54614232h6.6889549l318.47469087-0.18275805h19.99376292c15.09583894 0 29.89926476 5.55585324 41.19373051 16.33859568 14.51101267 13.8896343 21.78479506 30.99581554 21.78479506 51.35509458l0.14620595 240.80239457v16.55790584c0 15.38825209-4.75171681 28.2544398-14.3282534 38.59856316a46.89579091 46.89579091 0 0 1-35.82063654 15.53445926h-32.75029436l-58.99439429 0.03655088c-5.62895743 0-9.39377854-6.2137837-7.16412731-11.76963693l18.60480022-45.90889643a7.7124027 7.7124027 0 0 1 7.12757521-5.04412994h26.31720172c4.02068336 0 7.38343746-1.57172197 10.08825988-4.71516472a16.88687107 16.88687107 0 0 0 3.98413248-11.18481066l-0.0365521-19.44548875-318.43813876 0.18275926 0.07310298 89.6612434c0 4.64206173-3.50896006 8.40688404-7.78550447 8.40688405l-67.36472625 0.03655088c-4.3130965 0-7.82205657-3.76482233-7.82205656-8.40688405l-0.14620718-256.15409455-62.72266331 0.03655089c-5.99447355 0-9.75929586-7.01792014-6.725507-12.64687635M2475.36004242 278.32518064c0 45.21441386-5.37309518 85.71366301-16.2654927 121.53429956-10.96550051 35.82063533-25.95168438 68.35162075-45.10476 97.66605922 9.35722766 9.64964079 19.1530744 19.1530744 29.42409355 28.51030085l29.02202536 26.3172017c1.97379019 1.79103213 3.14344395 4.38620069 3.14344274 7.16412732v98.39709267c0.07310299 7.60274762-7.93171164 12.0620513-13.67032416 7.67585061-15.71721731-12.09860218-31.10547061-24.4896187-46.16475746-37.13649506a612.02114272 612.02114272 0 0 1-54.57164152-51.90336997c-16.92342318 18.275835-34.97994681 35.63787727-54.1330212 51.97647295a1236.90847315 1236.90847315 0 0 1-45.79924134 37.17304715c-5.73861251 4.38620069-13.70687625-0.07310299-13.74342714-7.67585061l-0.03655209-98.32398968c0-2.77792662 1.09654957-5.40964727 3.10689184-7.2006782l28.94892237-26.3537538c10.23446706-9.39377854 20.06686591-18.89721337 29.42409235-28.51030084A411.93730746 411.93730746 0 0 1 2267.38104641 409.65532694c-9.79584675-29.02202535-16.08273465-61.40680359-18.82410917-97.263991-0.40206821-5.48275026 3.65516724-10.12481198 8.69929718-10.12481198l58.95784099-0.03655089c4.49585577-0.0365521 8.1875739 3.76482233 8.5896421 8.62619299 2.04689317 24.74547973 5.95792145 46.4937227 11.80618905 65.24472888a279.98578278 279.98578278 0 0 0 25.11099707 58.00749861 261.30788079 261.30788079 0 0 0 29.05857623-67.43782923c6.06757652-21.78479506 9.46688273-47.22475615 10.16136408-76.28333238 0.18275806-6.57929982-5.48275026-12.0620513-12.31791232-12.0620513l-19.00686724 0.07310419-109.10673215 0.07310299c-5.88481846 0-10.051709-6.2137837-8.26067687-12.24480936l34.35856844-113.31017355a8.77240016 8.77240016 0 0 1 8.29722897-6.39654176L2370.45675169 146.48331105c5.84826758 0 10.051709 6.14068073 8.26067809 12.13515426l-14.43790969 49.12544336 102.34467305-0.07310297c4.86137188 0 8.73584928 4.20344142 8.73584928 9.35722644v61.2971485z m-341.02707147 24.05099839l59.06749728-0.07310299a8.77240016 8.77240016 0 0 1 8.40688406 7.01792014l18.27583377 75.73505821c1.42551481 5.92137057-2.70482364 11.69653396-8.40688283 11.69653395h-58.9943943a8.77240016 8.77240016 0 0 1-8.40688404-6.94481715l-18.2758338-75.7350582c-1.46206689-5.92137057 2.70482364-11.69653396 8.37033196-11.69653396z m-156.84321036 240.87549755c12.0620513 5.2634401 24.08754927 9.86895094 36.14960055 13.67032415 10.45377722 3.3627541 20.76134847 6.6889549 30.88616046 10.01515812a14.36480549 14.36480549 0 0 0 9.1013654 0l30.59374611-10.051709c11.80618903-3.8744774 23.72203315-8.40688404 35.74753234-13.74342836v-40.35304197l-142.55150785 0.07310299 0.07310299 40.42614616z m-102.96605144 69.52127449c0-4.67861382 3.14344395-8.62619421 7.49309255-9.24757256 15.64411434-2.19310034 32.34822736-4.7151647 50.00268277-7.63929851a545.27779604 545.27779604 0 0 1-17.39859437-7.56619552c-4.13033844-1.82758301-8.40688404-3.8379253-12.79308353-5.81171549a9.50343361 9.50343361 0 0 1-5.26344131-8.58964211l-0.03655089-56.5454317v-14.4013576h-13.41446311c-4.78826891 0-8.66274509-4.23999351-8.66274508-9.39377853l-0.0365521-46.93234302c0-5.11723414 3.8744774-9.32067555 8.6627463-9.32067555h13.4144619l-0.0365521-13.04894578c0-5.11723414 3.8744774-9.32067555 8.6627463-9.32067555l63.59990394-0.07310299c4.82481979 0 8.69929718 4.20344142 8.69929718 9.35722644v13.01239489l142.47840487-0.10965507v-13.01239489c0-5.11723414 3.8744774-9.32067555 8.66274509-9.32067556l63.59990394-0.07310298c4.82481979 0 8.69929718 4.20344142 8.69929718 9.35722765v13.01239369h13.41446311c4.75171681 0 8.66274509 4.16689053 8.66274508 9.32067555v46.93234301c0 5.15378502-3.8379253 9.35722766-8.6261942 9.35722765h-13.41446189v14.4013576l0.07310297 56.58198259a9.43033063 9.43033063 0 0 1-5.29999219 8.6261942l-12.79308352 5.84826637c-5.77516339 2.63172065-11.55032678 5.15378502-17.3620435 7.56619552 17.65445663 2.92413379 34.35856843 5.44619815 50.03923487 7.60274763 4.3130965 0.58482627 7.49309254 4.53240665 7.49309255 9.21102048v43.6426931c0 5.48275026-4.38620069 9.79584675-9.39377854 9.32067555a1346.0152053 1346.0152053 0 0 1-81.87573893-9.5765378 635.77972797 635.77972797 0 0 1-82.64332326-18.2758338c-28.54685294 8.1875739-56.32612155 14.32825461-83.26470163 18.42204096-24.4896187 3.69171812-51.75716281 6.94481715-81.87573772 9.64964079-5.04412994 0.43862031-9.43033063-3.8379253-9.43033062-9.32067555l-0.03655211-43.64269311z m2.66827155-227.49758653l18.16617991-75.7350582a8.88205524 8.88205524 0 0 1 8.40688405-7.01792013l59.03094519-0.07310419c5.66550832 0 9.79584675 5.77516339 8.37033195 11.69653395l-18.16617992 75.7716103a8.88205524 8.88205524 0 0 1-8.40688283 6.98136803l-59.03094518 0.0365521c-5.66550832 0-9.79584675-5.77516339-8.40688406-11.65998186z m5.73861251-166.3466452l19.37238455-0.0365521-11.25791364-47.48061718c-1.46206689-5.84826758 2.70482364-11.65998186 8.37033194-11.65998307h67.07231192a8.77240016 8.77240016 0 0 1 8.40688404 6.98136923l12.42756741 52.08612805h15.3517012V156.09640095c-0.0365521-5.15378502 3.8744774-9.35722766 8.66274509-9.35722765l74.3095434-0.07310297c4.75171681 0 8.66274509 4.20344142 8.66274509 9.35722643v62.7592154l15.42480418-0.03655088 12.35446443-52.08612803a8.77240016 8.77240016 0 0 1 8.37033195-7.01792135l67.0723119-0.07310297c5.66550832 0 9.83239885 5.77516339 8.40688405 11.65998185l-11.22136276 47.4806184h19.37238456c4.82481979-0.0365521 8.69929718 4.16689053 8.69929718 9.32067557v46.932343c0 5.11723414-3.8379253 9.35722766-8.58964211 9.35722645l-119.8163704 0.07310419 0.0731042 103.07570528c0 5.19033712-3.8744774 9.35722766-8.66274631 9.39377975h-74.30954218c-4.78826891 0-8.66274509-4.16689053-8.66274631-9.32067556l-0.07310297-103.07570649h-119.77981832c-4.78826891 0-8.66274509-4.16689053-8.66274629-9.32067556l-0.03655089-46.932343c0-5.11723414 3.8744774-9.32067555 8.66274509-9.32067557z" fill="#231815" p-id="2881"></path><path d="M1239.84053197 841.14777824V766.14375348h25.62271914l0.07310421 93.38951361c0 12.42756741-3.21654693 21.45582982-9.57653782 27.23099323-6.35999088 5.73861251-16.52135375 8.62619421-30.44754015 8.6261942L1179.74958811 895.42700661v-20.35928025h45.76268924c5.48275026 0 9.02826242-0.62137837 10.70963948-1.82758302a5.40964727 5.40964727 0 0 0 2.48551347-3.03378888c0.36551612-1.24275675 0.76758555-4.13033844 1.13310167-8.69929717h-22.80824164c-26.28064961 0.73103345-38.74476912-13.34135891-37.35580521-42.03441903V766.14375348h25.65927124L1205.37230725 816.8409176c0 9.90550183 0.84068852 16.44825076 2.59516856 19.59169472 1.71792794 3.14344395 5.2999922 4.67861382 10.81929455 4.67861382h21.05376161z" fill="#231815" p-id="2882"></path><path d="M1331.76797869 784.67544951c-15.46135628 0-23.17375776 9.79584675-23.17375776 29.35099059 0 7.96826373 1.27930883 14.03584027 3.87447618 18.20273079 4.20344142 7.09102433 10.70963948 10.59998439 19.51859173 10.59998441 15.16894314 0 22.77168955-9.72274378 22.77168955-29.24133551 0-19.00686723-7.6758506-28.69306012-23.0275518-28.94892237m-0.18275806-19.95721084c17.25238719 0 29.93581685 5.08068204 38.12339074 15.27859823 7.49309254 9.24757258 11.33101785 20.94410653 11.33101785 35.05304977 0 14.87652879-4.75171681 26.75582203-14.18204743 35.63787727-8.62619421 8.04136672-20.50548622 12.09860218-35.60132639 12.13515427-15.57101136 0-27.77926861-4.56895875-36.58821966-13.63377326-8.15102179-8.26067687-12.28136023-20.28617606-12.28136144-36.03994549 0-13.30480803 3.8744774-24.41651451 11.65998307-33.33512183 8.69929718-9.90550183 21.19996757-14.94963299 37.53856326-15.09583896M1460.86847254 840.96502018l-0.03655088-74.96747388 25.65927125-0.03655088v95.3998559h-50.51440606a64.98886663 64.98886663 0 0 1-16.85032019-1.64482617 25.03789287 25.03789287 0 0 1-10.5268802-5.95792145c-6.57929982-5.99447355-9.79584675-15.71721731-9.79584676-29.16823131l-0.03655208-58.55577399 25.47651317-0.0365521v61.29714973c0 4.3130965 1.16965376 7.6758506 3.39930499 10.08825988a11.76963694 11.76963694 0 0 0 9.10136541 3.61861515h24.12410135zM1592.56413618 765.88789123v20.39583235h-45.39717313a35.82063533 35.82063533 0 0 0-9.94205392 0.80413644c-2.96068468 1.02344658-4.42275157 3.58206305-4.42275157 7.6392985 0 3.39930499 1.42551481 5.99447355 4.20344141 7.82205656 1.57172197 1.05999869 5.73861251 1.57172197 12.42756741 1.57172198l15.20549403-0.03655089c9.64964079 0 17.32549139 2.11999737 22.95444881 6.21378371 6.2137837 4.75171681 9.43033063 11.65998186 9.43033064 20.79789936 0 6.94481715-1.93723809 13.23170384-5.73861251 19.00686722a20.43238324 20.43238324 0 0 1-10.27101917 9.02826242c-4.02068336 1.42551481-10.74619036 2.11999737-20.17652098 2.15654825h-53.03647164L1507.76426467 840.96502018l45.76268926-0.03655209c5.62895743 0 9.46688273-0.07310299 11.51377589-0.21931017 4.56895875-0.5117233 6.87171417-3.21654693 6.87171296-8.04136671 0-3.91102828-1.53516988-6.57929982-4.60550963-8.04136794-1.53516988-0.76758555-5.22688922-1.13310166-11.11170768-1.13310166h-15.49790717a62.86887049 62.86887049 0 0 1-14.07239357-1.16965254 25.29375513 25.29375513 0 0 1-17.25238719-14.54756477 33.81029425 33.81029425 0 0 1-2.96068469-14.03584027c0-9.50343361 3.3627541-17.10618124 10.0882599-22.69858657 4.09378634-3.39930499 11.22136276-5.11723414 21.27307176-5.11723413l54.79095167-0.0365521zM1642.12819865 730.6155313v35.23580904l26.24409873-0.03655209c7.78550567 0 13.8896343 0.62137837 18.31238587 1.86413511 4.38620069 1.24275675 8.11447091 3.43585709 11.18481067 6.54274894 5.88481846 5.48275026 8.84550436 14.69377073 8.84550435 27.63306143l0.03655088 59.32335832h-25.69582334V806.97196786a58.48266979 58.48266979 0 0 0-0.69448134-10.89239752 11.76963694 11.76963694 0 0 0-2.77792662-5.55585324c-2.55861646-2.77792662-7.38343746-4.20344142-14.54756477-4.31309771h-20.83445146v75.00402476l-25.65927124 0.0365521-0.07310299-130.63566495h25.65927126zM1791.55142066 840.78226091v-75.00402354l25.62272036-0.0365521 0.07310298 95.3633038h-50.58750903a64.69645349 64.69645349 0 0 1-16.8137681-1.60827286 25.18410004 25.18410004 0 0 1-10.5634323-5.95792266c-6.50619684-5.99447355-9.79584675-15.71721731-9.79584675-29.16823131v-58.55577399l25.47651319-0.03655088 0.03655088 61.29714851c0 4.3130965 1.09654957 7.6758506 3.32620201 10.08825988a11.76963694 11.76963694 0 0 0 9.13791749 3.61861515h24.12410138zM1862.8271752 835.62847588v25.43996109l-23.13720566 0.0365521-0.0365521-25.47651319zM1963.12495508 765.66858228v20.32272696l-30.59374733 0.07310419c-10.38067424 0-17.54480155 2.30275542-21.45582982 7.01792013-3.8744774 4.42275157-5.77516339 11.22136276-5.77516339 20.35927905 0 10.23446706 3.17999483 17.65445663 9.43033063 22.33307045 2.55861646 1.82758301 5.2999922 3.07033975 8.29722897 3.80137321 3.03378887 0.73103345 7.2006782 1.09654957 12.57377337 1.09654956h27.55995845v20.32272816h-35.01649889a68.71713686 68.71713686 0 0 1-22.44272432-2.8510296 35.16270486 35.16270486 0 0 1-14.58411566-10.23446827c-8.00481584-9.13791749-12.02549919-20.72479638-12.06205128-34.83373963 0-16.95997406 4.78826891-29.60685162 14.36480672-38.01373567a33.44477693 33.44477693 0 0 1 13.77997922-7.2006794c5.33654308-1.46206689 12.31791233-2.19310034 20.90755443-2.19309914h34.97994681zM2025.92072138 784.20027833c-15.46135628 0-23.13720688 9.79584675-23.13720568 29.38754146 0 7.96826373 1.24275675 14.03584027 3.83792531 18.20273079 4.20344142 7.05447222 10.70963948 10.59998439 19.51859052 10.5999844 15.20549403 0 22.80824164-9.75929586 22.77168955-29.2413355 0-19.00686723-7.6758506-28.69306012-22.9909997-28.94892115m-0.21931017-19.95721206c17.25238719 0 29.97236895 5.04412994 38.12339075 15.24204612 7.52964342 9.24757258 11.33101785 20.90755444 11.33101785 35.08960188 0.0365521 14.80342581-4.7151647 26.71926992-14.18204745 35.60132638-8.62619421 8.07791882-20.46893412 12.13515427-35.60132516 12.13515307-15.53445925 0.0365521-27.74271651-4.53240665-36.55166878-13.67032415-8.1875739-8.22412598-12.28136023-20.24962397-12.28136145-36.00339339 0-13.34135891 3.8744774-24.41651451 11.69653396-33.26201887 8.66274509-9.97860603 21.12686459-14.98618387 37.46546028-15.13239104M2094.08958405 765.55892721l94.23020215-0.0731042c8.55309002 0 15.05928806 0.65793046 19.51859173 1.93723932a24.4896187 24.4896187 0 0 1 11.29446575 6.87171294c5.62895743 6.2503358 8.44343493 14.87652879 8.47998703 25.84203052l0.03655088 60.67577015-25.65927124 0.03655209-0.03655089-56.58198381c0-4.56895875-0.21931015-7.74895358-0.58482748-9.61308868a10.12481198 10.12481198 0 0 0-2.70482364-4.86137188c-2.66827154-2.63172065-6.725507-3.91102828-12.06205008-3.91102951h-13.59722117l0.0365521 74.96747388-25.65927246 0.03655088-0.03655088-75.00402476-27.55995846 0.03655211 0.03655211 74.96747265-25.65927247 0.0365521-0.07310298-95.3633038zM2272.05966023 835.37261485v25.43996109h-23.13720688v-25.43996109zM2372.32088681 765.37616794v20.35928026l-30.59374612 0.03655088c-10.38067424 0-17.50824945 2.3393063-21.45582982 7.05447223-3.8379253 4.42275157-5.73861251 11.22136276-5.73861251 20.35928026 0 10.23446706 3.14344395 17.61790452 9.39377975 22.33306924a23.75858525 23.75858525 0 0 0 8.29722897 3.80137321c2.99723677 0.73103345 7.2006782 1.09654957 12.57377337 1.09655077h27.55995845v20.32272816h-35.0164989a68.71713686 68.71713686 0 0 1-22.40617221-2.88758291 35.16270486 35.16270486 0 0 1-14.58411687-10.19791497c-8.04136672-9.13791749-12.0620513-20.72479638-12.06205008-34.83374083 0-16.99652615 4.78826891-29.60685162 14.36480551-38.01373567a33.44477693 33.44477693 0 0 1 13.77997922-7.23723029c5.33654308-1.42551481 12.28136023-2.19310034 20.87100355-2.19310034h35.01649769zM2391.87603063 765.37616794l49.41785529-0.03655088c7.38343746 0 13.01239367 0.54827539 16.92342317 1.64482495a26.68271783 26.68271783 0 0 1 10.63653527 5.99447354c6.57929982 6.10412863 9.79584675 15.79032151 9.79584797 28.94892115l0.03655088 58.73853206h-25.65927123v-61.66266463c0-4.67861382-1.05999869-8.07791882-3.10689186-10.16136409-2.04689317-2.08344527-5.44619815-3.14344395-10.16136408-3.10689184h-22.22341416l0.07310298 74.93092056-25.69582335 0.07310419v-95.39985589z" fill="#231815" p-id="2883"></path></svg>