
<svg width="246px" height="142px" viewBox="0 0 246 142" version="1.1" xmlns="http://www.w3.org/2000/svg" xmlns:xlink="http://www.w3.org/1999/xlink">
    <defs>
        <rect id="path-1" x="0" y="0" width="174" height="106" rx="2"></rect>
        <path d="M2,0 L80,0 C81.1045695,-2.02906125e-16 82,0.8954305 82,2 L82,44.6914062 L82,50.5058594 L82,88 C82,89.1045695 81.1045695,90 80,90 L2,90 C0.8954305,90 1.3527075e-16,89.1045695 0,88 L0,2 C-1.3527075e-16,0.8954305 0.8954305,2.02906125e-16 2,0 Z" id="path-3"></path>
    </defs>
    <g id="页面-1" stroke="none" stroke-width="1" fill="none" fill-rule="evenodd">
        <g id="新增权限" transform="translate(-795.000000, -359.000000)">
            <g id="编组-8" transform="translate(795.000000, 359.000000)">
                <g id="矩形" transform="translate(43.500000, 2.000000)">
                    <mask id="mask-2" fill="white">
                        <use xlink:href="#path-1"></use>
                    </mask>
                    <rect stroke="#D0DFEB" stroke-width="2" x="-1" y="-1" width="176" height="108" rx="2"></rect>
                    <rect fill="#E4F0FA" mask="url(#mask-2)" x="-0.5" y="0" width="175" height="20"></rect>
                </g>
                <rect id="矩形" fill="#FFFFFF" x="60" y="6" width="55" height="11"></rect>
                <rect id="矩形" fill="#E4F0FA" x="60" y="32" width="140" height="6"></rect>
                <g id="字段@1x" transform="translate(2.000000, 50.000000)">
                    <mask id="mask-4" fill="white">
                        <use xlink:href="#path-3"></use>
                    </mask>
                    <path stroke="#0091FF" stroke-width="2" d="M2,-1 L80,-1 C81.6568542,-1 83,0.343145751 83,2 L83,88 C83,89.6568542 81.6568542,91 80,91 L2,91 C0.343145751,91 -1,89.6568542 -1,88 L-1,2 C-1,0.343145751 0.343145751,-1 2,-1 Z"></path>
                    <g mask="url(#mask-4)" fill-rule="nonzero">
                        <g transform="translate(-6.000000, -1.000000)">
                            <path d="M3.75000096,0 L86.249999,0 C88.7499997,0 90,1.26666589 90,3.79999766 L90,34.2000023 C90,36.7333341 88.7499997,38 86.249999,38 L3.75000096,38 C1.25000032,38 0,36.7333341 0,34.2000023 L0,3.79999766 C0,1.26666589 1.25000032,0 3.75000096,0 Z" id="路径" fill="#E4F0FA"></path>
                            <path d="M67,27.7148345 L67,31 L26,31 L26,27.7148345 L67,27.7148345 Z M67,21.1445036 L67,24.4296691 L44.6364002,24.4296691 L44.6364002,21.1445036 L67,21.1445036 Z M43.5331303,8 L43.5331303,12.0019992 L39.1945865,12.0019992 L39.1945865,23.9696389 L34.0323142,23.9696389 L34.0323142,12.0019992 L29.7273145,12.0019992 L29.7273145,8 L43.5331303,8 Z M67,14.5703309 L67,17.8554964 L52.0909143,17.8554964 L52.0909143,14.5703309 L67,14.5703309 L67,14.5703309 Z" id="形状" fill="#FFFFFF"></path>
                        </g>
                    </g>
                </g>
                <rect id="矩形" stroke="#0091FF" stroke-width="2" fill="#FFFFFF" x="146" y="49" width="53" height="18" rx="2"></rect>
                <text id="xxx" font-family="PingFangSC-Medium, PingFang SC" font-size="12" font-weight="400" fill="#D0DFEB">
                    <tspan x="152" y="61">xxx</tspan>
                </text>
                <g id="指针" transform="translate(187.000000, 61.000000)" fill="#0091FF" fill-rule="nonzero">
                    <g id="路径">
                        <path d="M0.496064641,10.4565348 C0.496064641,7.14275948 0.495891778,3.82896265 0.497669798,0.51518731 C0.497714248,0.45913451 0.521873086,0.40312468 0.534785951,0.347050396 C0.574569133,0.391952792 0.607595842,0.445384494 0.655113408,0.480511488 C2.13564786,1.57634479 3.61667127,2.67153357 5.0994727,3.76442351 C8.34729167,6.15825833 11.5961552,8.5507826 14.8443076,10.9442307 C14.8967592,10.9828811 14.9454324,11.0262796 14.9958615,11.0674437 L14.9782591,11.1156332 C14.9039824,11.1156332 14.8296834,11.1138715 14.7554955,11.115934 C14.1883074,11.1315961 13.6184077,11.119393 13.0546422,11.1705474 C12.1007127,11.257108 11.1486722,11.3699871 10.1998544,11.4993876 C9.71092136,11.5660752 9.2309895,11.6938214 8.74625698,11.7904582 C8.61126087,11.8173567 8.58734651,11.8789095 8.65931184,11.9865249 C8.68382628,12.0231558 8.70600707,12.0611832 8.7295436,12.0984156 C9.69558594,13.624474 10.659428,15.1518645 11.6294264,16.6756026 C11.8515677,17.0245737 11.987564,17.3981659 11.9817632,17.8047797 C11.9680724,18.7622964 11.2516195,19.5963208 10.2873108,19.8073406 C10.2222797,19.8216063 10.1636718,19.8632215 10.1020634,19.8920966 L9.55981194,19.8920966 C9.51302781,19.8656922 9.46935521,19.8259461 9.41897059,19.8149246 C8.72343166,19.6632877 8.19858258,19.3007814 7.88842934,18.6692905 C7.80281771,18.4950305 7.71600592,18.3212217 7.63343915,18.1455652 C6.87962563,16.5419267 6.12501201,14.9386318 5.37573245,13.3329952 C5.29976658,13.1702079 5.22504531,13.1558778 5.06886854,13.2460693 C3.55008445,14.1231914 2.22359314,15.2226341 1.03665413,16.4848211 C0.888389541,16.6424737 0.746792528,16.8059914 0.570479688,17.0019506 C0.570479688,16.8838079 0.570724166,16.816175 0.570457463,16.7485207 C0.5623008,14.7596023 0.554855344,12.770684 0.543831624,10.7817657 C0.543164867,10.6732694 0.512671836,10.5649236 0.496064641,10.4565348 L0.496064641,10.4565348 Z"></path>
                    </g>
                </g>
                <path id="路径-5" d="M64.9751701,118.023673 L73.7520207,113.102607 L74.1781335,122.092514 L64.9751701,118.023673 Z M142.061416,70.7184491 C142.216912,70.4902485 142.52796,70.43131 142.75616,70.5868062 C142.984361,70.7423024 143.043299,71.0533502 142.887803,71.2815509 C142.126857,72.3982885 141.36041,73.4952305 140.588464,74.5723762 C140.427606,74.7968302 140.11525,74.8483857 139.890796,74.6875286 C139.666342,74.5266715 139.614787,74.2143151 139.775644,73.9898611 C140.542969,72.9191645 141.304893,71.828694 142.061416,70.7184491 Z M137.415702,77.1979516 C137.582137,76.9776021 137.895688,76.9338961 138.116038,77.1003315 C138.336387,77.2667668 138.380093,77.5803179 138.213658,77.8006673 C137.399532,78.8785165 136.579458,79.9349742 135.753435,80.9700394 C135.581189,81.1858766 135.266584,81.2212137 135.050747,81.0489671 C134.83491,80.8767205 134.799573,80.5621163 134.971819,80.3462791 C135.792275,79.3181908 136.606902,78.2687486 137.415702,77.1979516 Z M132.434419,83.4357774 C132.612722,83.2249154 132.928202,83.1985208 133.139064,83.3768235 C133.349926,83.5551261 133.376321,83.8706064 133.198018,84.0814684 C132.325323,85.1135235 131.446176,86.1223904 130.560576,87.1080674 C130.37602,87.3134787 130.059889,87.3303854 129.854478,87.1458296 C129.649067,86.9612739 129.63216,86.6451431 129.816716,86.4397319 C130.69559,85.4615412 131.568159,84.4602236 132.434419,83.4357774 Z M127.110247,89.3581314 C127.301251,89.1587023 127.61776,89.1518726 127.817189,89.3428768 C128.016618,89.5338811 128.023448,89.8503899 127.832444,90.049819 C126.897478,91.0260241 125.955526,91.9771328 125.006584,92.9031426 C124.808949,93.0960022 124.49239,93.0921305 124.29953,92.894495 C124.106671,92.6968595 124.110543,92.3803007 124.308178,92.1874411 C125.249015,91.2693398 126.183038,90.3262374 127.110247,89.3581314 Z M121.398531,94.9273551 C121.602972,94.7417241 121.919187,94.7569719 122.104818,94.961412 C122.290449,95.1658521 122.275201,95.4820672 122.070761,95.6676982 C121.06947,96.5768666 120.060627,97.4589119 119.044229,98.3138304 C118.832903,98.4915824 118.517493,98.4643651 118.33974,98.2530388 C118.161988,98.0417125 118.189206,97.7263021 118.400532,97.54855 C119.407218,96.7018005 120.406551,95.8280701 121.398531,94.9273551 Z M115.287536,100.062825 C115.505834,99.8937078 115.819896,99.9335765 115.989014,100.151874 C116.158131,100.370172 116.118262,100.684234 115.899965,100.853351 C114.831744,101.680912 113.755429,102.479394 112.671021,103.248793 C112.445807,103.408585 112.133698,103.35555 111.973907,103.130336 C111.814115,102.905122 111.86715,102.593013 112.092364,102.433222 C113.165295,101.671967 114.230352,100.881836 115.287536,100.062825 Z M108.816206,104.652163 C109.048205,104.502393 109.35769,104.569053 109.50746,104.801052 C109.65723,105.033052 109.59057,105.342537 109.35857,105.492306 C108.224033,106.22472 107.080903,106.92623 105.929184,107.59683 C105.690547,107.735779 105.384452,107.654966 105.245503,107.416328 C105.106554,107.177691 105.187368,106.871597 105.426005,106.732648 C106.564435,106.069785 107.694502,105.376292 108.816206,104.652163 Z M101.933893,108.656267 C102.178901,108.528888 102.480781,108.624246 102.60816,108.869254 C102.735539,109.114263 102.640182,109.416142 102.395173,109.543522 C101.199277,110.165264 99.9944075,110.754655 98.780569,111.311689 C98.5295919,111.426863 98.2327676,111.316774 98.1175934,111.065796 C98.0024191,110.814819 98.1125091,110.517995 98.3634862,110.402821 C99.5623825,109.852643 100.752516,109.270461 101.933893,108.656267 Z M94.6878575,111.978363 C94.9443525,111.876065 95.2352118,112.001066 95.33751,112.257561 C95.4398082,112.514056 95.314807,112.804915 95.058312,112.907214 C93.8089707,113.40549 92.5504267,113.870482 91.2826873,114.302186 C91.0212855,114.391202 90.7372164,114.251455 90.648201,113.990053 C90.5591857,113.728651 90.6989325,113.444582 90.9603342,113.355567 C92.2118729,112.929379 93.4543782,112.470313 94.6878575,111.978363 Z M87.1367723,114.547361 C87.40246,114.472097 87.6788558,114.626466 87.7541197,114.892154 C87.8293835,115.157841 87.6750144,115.434237 87.4093267,115.509501 C86.1182249,115.875243 84.8178837,116.207441 83.5083115,116.506091 C83.2390814,116.56749 82.971054,116.399009 82.9096555,116.129779 C82.8482571,115.860549 83.0167379,115.592522 83.2859679,115.531123 C84.5786992,115.236313 85.8622978,114.908393 87.1367723,114.547361 Z M79.4466134,116.304644 C79.7186102,116.256975 79.9777506,116.438829 80.0254196,116.710826 C80.0730886,116.982823 79.8912349,117.241963 79.6192381,117.289632 C78.3011971,117.520626 76.9740832,117.718556 75.6379047,117.883423 C75.3638406,117.917239 75.1142547,117.722479 75.0804389,117.448415 C75.046623,117.174351 75.2413827,116.924765 75.5154468,116.890949 C76.8348682,116.72815 78.1452544,116.532715 79.4466134,116.304644 Z" fill="#0091FF" fill-rule="nonzero"></path>
                <circle id="椭圆形" fill="#E4F0FA" cx="16" cy="98" r="3"></circle>
                <circle id="椭圆形备份" fill="#E4F0FA" cx="16" cy="113" r="3"></circle>
                <circle id="椭圆形备份-2" fill="#E4F0FA" cx="16" cy="128" r="3"></circle>
                <rect id="矩形" stroke="#D2E0EB" stroke-width="2" fill="#F9FCFF" x="124" y="102" width="121" height="39"></rect>
                <g id="属性" fill="#D0DFEB" fill-rule="nonzero">
                    <path d="M3.34232614,19.9940048 L3.34232614,5.0059952 L4.18165468,5.0059952 C4.67625899,5.0059952 5.02098321,4.67625899 5.02098321,4.16666667 L5.02098321,3.32733813 L20.0089928,3.32733813 L20.0089928,4.16666667 C20.0089928,4.66127098 20.338729,5.0059952 20.8483213,5.0059952 L21.6876499,5.0059952 L21.6876499,19.9940048 L20.8483213,19.9940048 C20.353717,19.9940048 20.0089928,20.323741 20.0089928,20.8333333 L20.0089928,21.6726619 L5.0059952,21.6726619 L5.0059952,20.8333333 C5.0059952,20.338729 4.67625899,19.9940048 4.16666667,19.9940048 L3.34232614,19.9940048 Z M1.67865707,5.0059952 L1.67865707,19.9940048 L0.839328537,19.9940048 C0.344724221,19.9940048 0,20.323741 0,20.8333333 L0,24.1606715 C0,24.6552758 0.329736211,25 0.839328537,25 L4.16666667,25 C4.66127098,25 5.0059952,24.6702638 5.0059952,24.1606715 L5.0059952,23.3213429 L19.9940048,23.3213429 L19.9940048,24.1606715 C19.9940048,24.6552758 20.323741,25 20.8333333,25 L24.1606715,25 C24.6552758,25 25,24.6702638 25,24.1606715 L25,20.8333333 C25,20.338729 24.6702638,19.9940048 24.1606715,19.9940048 L23.3213429,19.9940048 L23.3213429,5.0059952 L24.1606715,5.0059952 C24.6552758,5.0059952 25,4.67625899 25,4.16666667 L25,0.839328537 C25,0.344724221 24.6702638,0 24.1606715,0 L20.8333333,0 C20.338729,0 19.9940048,0.329736211 19.9940048,0.839328537 L19.9940048,1.67865707 L5.0059952,1.67865707 L5.0059952,0.839328537 C5.0059952,0.344724221 4.67625899,0 4.16666667,0 L0.839328537,0 C0.344724221,0 0,0.329736211 0,0.839328537 L0,4.16666667 C0,4.66127098 0.329736211,5.0059952 0.839328537,5.0059952 L1.67865707,5.0059952 Z" id="形状"></path>
                </g>
                <g id="属性" transform="translate(208.000000, 115.000000)" fill="#D0DFEB" fill-rule="nonzero">
                    <path d="M2.85341834,7.03926006 L7.08208896,11.2134306 L7.08208898,11.2134306 C7.5233306,11.6886737 7.49073788,12.4270213 7.0092895,12.8625761 C6.55723199,13.2715441 5.86346861,13.2715441 5.4114111,12.862576 L0.345545375,7.86383278 L0.345545261,7.86383267 C-0.115181792,7.40818179 -0.115181792,6.67033806 0.345545488,6.21468717 L5.41141121,1.21227916 L5.41141112,1.21227926 C5.85265273,0.737036184 6.60064062,0.704863531 7.08208871,1.14041775 C7.56353681,1.57597253 7.59612952,2.31432017 7.15488849,2.78956325 C7.1316904,2.81454892 7.10740093,2.8385254 7.082089,2.86142447 L2.85341838,7.03925974 L2.85341834,7.03926006 Z M23.1465822,7.03926006 L18.9179116,2.86508956 L18.9179117,2.86508965 C18.4364636,2.42953486 18.4038708,1.69118722 18.8451119,1.21594415 C19.2863535,0.740701069 20.0343414,0.708528417 20.5157895,1.14408263 C20.5411014,1.16698173 20.5653909,1.19095816 20.588589,1.21594386 L25.6544547,6.21468711 L25.6544547,6.21468715 C26.1151818,6.67033803 26.1151818,7.40818176 25.6544546,7.86383265 L20.5867326,12.8662407 L20.5867326,12.8662407 C20.1052845,13.3017955 19.3572966,13.2696228 18.916055,12.7943794 C18.5017473,12.3481482 18.5017473,11.6633262 18.916055,11.2170949 L23.1447256,7.04109201 L23.1465822,7.03926006 Z M14.4460645,0.746853785 L14.4460645,0.746853816 C14.681438,0.145537002 15.3660742,-0.153576763 15.9752421,0.0787609243 C16.58441,0.311100903 16.8874292,0.986913284 16.652058,1.5882301 C16.6416609,1.61479173 16.6302827,1.64096897 16.6179463,1.6667091 L11.5539368,13.3316649 L11.5539369,13.3316649 C11.2746547,13.9143859 10.569696,14.1632895 9.97936673,13.8876044 C9.41935908,13.6260812 9.15877109,12.9822379 9.38205599,12.4118082 L14.4460654,0.746852354 L14.4460645,0.746853785 Z" id="形状"></path>
                </g>
                <path d="M133.5,116 L194.5,116" id="直线-4" stroke="#E4F0FA" stroke-linecap="square"></path>
                <path d="M133.5,120 L194.5,120" id="直线-4备份" stroke="#E4F0FA" stroke-linecap="square"></path>
                <path d="M133.5,124 L194.5,124" id="直线-4备份-2" stroke="#E4F0FA" stroke-linecap="square"></path>
                <path d="M133.5,128 L194.5,128" id="直线-4备份-3" stroke="#E4F0FA" stroke-linecap="square"></path>
            </g>
        </g>
    </g>
</svg>