<?xml version="1.0" standalone="no"?><!DOCTYPE svg PUBLIC "-//W3C//DTD SVG 1.1//EN" "http://www.w3.org/Graphics/SVG/1.1/DTD/svg11.dtd"><svg t="1583126997956" class="icon" viewBox="0 0 1024 1024" version="1.1" xmlns="http://www.w3.org/2000/svg" p-id="1754" xmlns:xlink="http://www.w3.org/1999/xlink" width="200" height="200"><defs><style type="text/css"></style></defs><path d="M512 938.666667c235.648 0 426.666667-191.018667 426.666667-426.666667S747.648 85.333333 512 85.333333 85.333333 276.352 85.333333 512s191.018667 426.666667 426.666667 426.666667z" fill="#E6F7FF" p-id="1755"></path><path d="M705.962667 595.477333h-31.104V512a18.901333 18.901333 0 0 0-18.666667-19.264h-131.413333v-64.917333h31.146666a18.901333 18.901333 0 0 0 18.666667-19.264v-90.624a18.901333 18.901333 0 0 0-18.688-19.264h-87.808a18.901333 18.901333 0 0 0-18.688 19.264v90.624c0 10.688 8.32 19.264 18.688 19.264H499.2v64.917333h-131.392a18.901333 18.901333 0 0 0-18.666667 19.264v84.181333h-31.786666a18.901333 18.901333 0 0 0-18.688 19.264v90.624c0 10.709333 8.298667 19.264 18.666666 19.264h87.829334a18.901333 18.901333 0 0 0 18.666666-19.264v-90.624a18.901333 18.901333 0 0 0-18.666666-19.264h-31.125334v-77.76H499.2v77.76h-31.104a18.901333 18.901333 0 0 0-18.688 19.264v90.624c0 10.709333 8.32 19.264 18.688 19.264h87.808a18.901333 18.901333 0 0 0 18.688-19.264v-90.624a18.901333 18.901333 0 0 0-18.688-19.264H524.8v-77.76h125.162667v77.76h-31.125334a18.901333 18.901333 0 0 0-18.666666 19.264v90.624c0 10.709333 8.298667 19.264 18.666666 19.264h87.829334a18.901333 18.901333 0 0 0 18.666666-19.264v-90.624c-0.682667-11.413333-8.981333-19.968-19.370666-19.968z" fill="#0091FF" p-id="1756"></path></svg>