<?xml version="1.0" standalone="no"?><!DOCTYPE svg PUBLIC "-//W3C//DTD SVG 1.1//EN" "http://www.w3.org/Graphics/SVG/1.1/DTD/svg11.dtd"><svg t="1583127246728" class="icon" viewBox="0 0 1024 1024" version="1.1" xmlns="http://www.w3.org/2000/svg" p-id="1874" xmlns:xlink="http://www.w3.org/1999/xlink" width="200" height="200"><defs><style type="text/css"></style></defs><path d="M512 512m-426.666667 0a426.666667 426.666667 0 1 0 853.333334 0 426.666667 426.666667 0 1 0-853.333334 0Z" fill="#E6F7FF" p-id="1875"></path><path d="M673.28 621.738667A148.970667 148.970667 0 0 0 640 575.168c-28.565333-27.264-66.688-42.88-104.704-42.88H470.4c-37.973333 0-76.117333 15.616-104.682667 42.88a149.909333 149.909333 0 0 0-33.28 46.570667A136.96 136.96 0 0 0 320 678.848c0 25.642667 20.224 46.464 45.226667 46.485333h275.264c24.96 0 45.226667-20.821333 45.226666-46.506666v0.021333c0-19.733333-4.266667-39.253333-12.458666-57.109333z m-170.432-96.554667c60.757333 0 110.144-50.858667 110.144-113.237333 0-62.357333-49.386667-113.28-110.144-113.28-60.757333 0-110.122667 50.837333-110.122667 113.194666 0 62.378667 49.365333 113.322667 110.122667 113.322667z" fill="#0091FF" p-id="1876"></path></svg>