<?xml version="1.0" encoding="UTF-8"?>
<svg width="170px" height="124px" viewBox="0 0 170 124" version="1.1" xmlns="http://www.w3.org/2000/svg" xmlns:xlink="http://www.w3.org/1999/xlink">
    <!-- Generator: Sketch 56.1 (81669) - https://sketch.com -->
    <title>编组 8</title>
    <desc>Created with Sketch.</desc>
    <g id="页面-1" stroke="none" stroke-width="1" fill="none" fill-rule="evenodd">
        <g id="数据类型" transform="translate(-1204.000000, -166.000000)">
            <g id="矩形" transform="translate(743.000000, 111.000000)">
                <g id="编组-8" transform="translate(462.000000, 55.000000)">
                    <path d="M30,124 C28.8954305,124 28,123.104569 28,122 L28,19 C28,17.8954305 28.8954305,17 30,17 L30,17 L145,17 C146.104569,17 147,17.8954305 147,19 L147,124" id="路径" stroke="#E2EDF5" stroke-width="2" fill="#F9FCFF"></path>
                    <rect id="矩形备份-13" stroke="#D0DFEB" stroke-width="2" fill="#F9FCFF" x="125" y="1" width="43" height="33" rx="2"></rect>
                    <g id="字段设置@1x" transform="translate(137.000000, 11.000000)" fill="#D0DFEB" fill-rule="nonzero">
                        <path d="M0,2.10996327 L2.17538462,0 L8.87692308,6.5 L2.17538462,13 L0,10.8900367 L4.52615385,6.5 L0,2.10996327 Z M10.7692308,8.95316804 L20,8.95316804 L20,11.9375574 L10.7692308,11.9375574 L10.7692308,8.95316804 Z" id="形状"></path>
                    </g>
                    <rect id="矩形" fill="#E2EDF5" x="45" y="62" width="87" height="9"></rect>
                    <rect id="矩形备份-11" fill="#E2EDF5" x="45" y="80" width="40" height="9"></rect>
                    <rect id="矩形备份-12" fill="#E2EDF5" x="45" y="98" width="55" height="9"></rect>
                    <g id="字段" transform="translate(45.000000, 27.000000)" fill="#BFD4E5" fill-rule="nonzero">
                        <path d="M15.7675988,21.1812851 L12.1668134,21.1812851 L11.0066558,16.746905 L5.37774296,16.746905 L4.23906976,21.1812851 L0.6640656,21.1812851 L6.33165032,1.8281376 L10.211733,1.8281376 L15.7675988,21.1812851 Z M10.2289205,13.55862 L8.47149656,6.85119032 C8.35977768,6.4257992 8.27813696,5.86290792 8.23087128,5.16681336 L8.1406368,5.16681336 C8.10196488,5.73400152 8.0117304,6.27970528 7.86993336,6.80392464 L6.10391568,13.55862 L10.2289205,13.55862 Z M20.6359638,19.5183926 L20.6359638,21.1812851 L17.409007,21.1812851 L17.409007,0.7324332 L20.6359638,0.7324332 L20.6359638,9.476584 L20.6746358,9.476584 C21.5211211,7.8437696 22.7285444,7.0273624 24.2926087,7.0273624 C25.6847978,7.0273624 26.7762054,7.63751936 27.5668313,8.84923952 C28.3574572,10.0652566 28.7527702,11.7453366 28.7527702,13.8851829 C28.7527702,16.1754199 28.2973009,18.0187814 27.3906592,19.4195643 C26.4840175,20.8203472 25.2808911,21.5164418 23.78128,21.5164418 C22.4062784,21.5164418 21.3707303,20.8504254 20.6703389,19.5183926 L20.6359638,19.5183926 L20.6359638,19.5183926 Z M20.5844013,15.2086219 C20.5844013,16.1152636 20.7992453,16.8801082 21.2332302,17.4945621 C21.667215,18.1090159 22.2172157,18.4183913 22.8832321,18.4183913 C23.6867486,18.4183913 24.31839,18.0273752 24.7652655,17.245343 C25.212141,16.4633109 25.4398757,15.3547158 25.4398757,13.9238548 C25.4398757,12.733619 25.2336254,11.805493 24.8254218,11.1308828 C24.4172182,10.4562726 23.8328426,10.1254129 23.0722948,10.1254129 C22.3547158,10.1254129 21.7574495,10.4605695 21.2890896,11.1351797 C20.8207297,11.8097898 20.5844013,12.6734627 20.5844013,13.7347921 L20.5844013,15.2086219 L20.5844013,15.2086219 Z M39.3273918,20.6656595 C38.5539534,21.2328477 37.4539522,21.5164418 36.027388,21.5164418 C34.343011,21.5164418 32.9809001,20.8762066 31.9410551,19.5914395 C30.9012102,18.3066724 30.3812877,16.6480767 30.3812877,14.6070587 C30.3812877,12.2566654 30.9398821,10.4047101 32.0613678,9.05548976 C33.1785566,7.70197256 34.6738708,7.0273624 36.5387167,7.0273624 C37.7977026,7.0273624 38.7301255,7.2422064 39.3359856,7.67619128 L39.3359856,11.1351797 C38.5969222,10.4605695 37.7891088,10.1254129 36.9168422,10.1254129 C35.9285598,10.1254129 35.1379338,10.4992414 34.5406675,11.2511954 C33.9434012,11.9988526 33.6469165,13.0301038 33.6469165,14.3363553 C33.6469165,15.599638 33.9305106,16.600811 34.4976987,17.3269838 C35.0648869,18.0531565 35.8340284,18.4183913 36.8051233,18.4183913 C37.6644993,18.4183913 38.5066878,18.0789378 39.323095,17.3957338 L39.3273918,20.6656595 L39.3273918,20.6656595 Z M1.39023832,23.3039438 L38.854735,23.3039438 L38.854735,25.267618 L1.39023832,25.267618 L1.39023832,23.3039438 Z" id="形状"></path>
                    </g>
                    <path d="M0,124 L0,65 C0,63.8954305 0.8954305,63 2,63 L2,63 L35,63 C36.1045695,63 37,63.8954305 37,65 L37,124" id="路径" stroke="#E2EDF5" stroke-width="2" fill="#F9FCFF"></path>
                    <rect id="矩形" fill="#E2EDF5" x="7" y="86" width="24" height="2"></rect>
                    <rect id="矩形备份-14" fill="#E2EDF5" x="7" y="75" width="24" height="2"></rect>
                    <rect id="矩形备份-15" fill="#E2EDF5" x="7" y="98" width="24" height="2"></rect>
                    <rect id="矩形" fill="#BFD4E5" x="11" y="73" width="4" height="6"></rect>
                    <rect id="矩形备份-16" fill="#BFD4E5" x="23" y="84" width="4" height="6"></rect>
                    <rect id="矩形备份-17" fill="#BFD4E5" x="15" y="96" width="4" height="6"></rect>
                </g>
            </g>
        </g>
    </g>
</svg>