<?xml version="1.0" standalone="no"?><!DOCTYPE svg PUBLIC "-//W3C//DTD SVG 1.1//EN" "http://www.w3.org/Graphics/SVG/1.1/DTD/svg11.dtd"><svg t="1583127354427" class="icon" viewBox="0 0 1024 1024" version="1.1" xmlns="http://www.w3.org/2000/svg" p-id="2114" xmlns:xlink="http://www.w3.org/1999/xlink" width="200" height="200"><defs><style type="text/css"></style></defs><path d="M512 512m-426.666667 0a426.666667 426.666667 0 1 0 853.333334 0 426.666667 426.666667 0 1 0-853.333334 0Z" fill="#E6F7FF" p-id="2115"></path><path d="M656.725333 487.445333H634.24c0.853333 0.874667 1.621333 1.834667 2.389333 2.709334 9.365333 11.861333 12.522667 25.536 9.130667 39.466666l-34.346667 142.144c4.8 1.493333 9.642667 2.389333 14.528 2.389334h21.205334c23.445333 0 46.933333-18.581333 52.437333-41.514667l25.109333-103.68c5.504-22.997333-24.874667-41.514667-67.968-41.514667z m-28.16 177.813334v-4.736c0.490667 0 0.96 0.426667 1.429334 0.426666l-1.408 4.309334z m8.576-198.570667a51.84 51.84 0 1 0 0-103.701333 51.84 51.84 0 1 0 0 103.68zM538.837333 469.333333h-53.44c-58.986667 0-100.906667 25.472-93.546666 56.917334l33.322666 142.208c7.402667 31.36 39.424 56.853333 71.466667 56.853333h29.12c32.106667 0 64.213333-25.472 71.850667-56.917333l34.346666-142.208c7.637333-31.36-34.069333-56.853333-93.12-56.853334z m35.008 101.376l-70.954666 70.762667a12.458667 12.458667 0 0 1-17.6 0l-35.221334-35.157333a12.458667 12.458667 0 0 1 0-17.578667 12.629333 12.629333 0 0 1 17.749334-0.170667l26.496 26.474667 61.952-61.866667a12.586667 12.586667 0 0 1 17.578666 0 12.586667 12.586667 0 0 1 0 17.536z m-61.888-129.856a71.146667 71.146667 0 0 0 71.125334-71.104 71.146667 71.146667 0 0 0-142.250667 0 71.061333 71.061333 0 0 0 71.125333 71.104z m-125.184 25.813334a51.84 51.84 0 1 0 0-103.701334 51.882667 51.882667 0 0 0-51.925333 51.84 51.925333 51.925333 0 0 0 51.925333 51.84z m0.618667 23.466666c0.768-1.002667 1.557333-1.834667 2.346667-2.709333h-22.336c-38.570667 0-67.072 14.848-68.736 34.496v3.669333c0.106667 1.109333 0.277333 2.154667 0.490666 3.328l24.32 103.701334c5.354667 22.869333 28.736 41.514667 52.16 41.514666h21.205334c4.906667 0 9.813333-0.853333 14.528-2.389333v-0.064l-33.322667-142.208c-3.242667-13.909333-0.064-27.52 9.344-39.338667z m11.392 170.304v4.736l-1.408-4.309333c0.469333 0 0.938667 0 1.408-0.426667z m0 0c-0.469333 0-0.938667 0.426667-1.408 0.426667l1.408 4.309333v-4.736z m229.802667 4.8l1.408-4.309333c-0.469333 0-0.938667-0.426667-1.408-0.426667v4.736z" fill="#0091FF" p-id="2116"></path></svg>