<?xml version="1.0" standalone="no"?><!DOCTYPE svg PUBLIC "-//W3C//DTD SVG 1.1//EN" "http://www.w3.org/Graphics/SVG/1.1/DTD/svg11.dtd"><svg t="1583127368040" class="icon" viewBox="0 0 1024 1024" version="1.1" xmlns="http://www.w3.org/2000/svg" p-id="2234" xmlns:xlink="http://www.w3.org/1999/xlink" width="200" height="200"><defs><style type="text/css"></style></defs><path d="M512 512m-426.666667 0a426.666667 426.666667 0 1 0 853.333334 0 426.666667 426.666667 0 1 0-853.333334 0Z" fill="#E6F7FF" p-id="2235"></path><path d="M472.746667 298.666667h78.506666c24.128 0 36.202667 12.458667 36.202667 37.376v80.96c0 24.917333-12.074667 37.376-36.224 37.376h-78.464c-24.149333 0-36.224-12.458667-36.224-37.376v-80.96c0-24.917333 12.074667-37.376 36.224-37.376z m-137.856 270.954666h78.464c24.149333 0 36.224 12.458667 36.224 37.376v80.96c0 24.917333-12.074667 37.376-36.224 37.376h-78.464C310.741333 725.333333 298.666667 712.874667 298.666667 687.957333v-80.96c0-24.917333 12.074667-37.376 36.224-37.376z m275.754666 0h78.464c24.149333 0 36.224 12.458667 36.224 37.376v80.96C725.333333 712.874667 713.258667 725.333333 689.109333 725.333333h-78.464c-24.149333 0-36.224-12.458667-36.224-37.376v-80.96c0-24.917333 12.074667-37.376 36.224-37.376zM377.6 657.856a18.410667 18.410667 0 0 1-18.090667-18.688c0-3.029333 0.704-6.016 2.069334-8.682667l137.877333-270.933333a17.856 17.856 0 0 1 24.469333-7.872 18.986667 18.986667 0 0 1 7.616 25.237333l-137.877333 270.933334a18.048 18.048 0 0 1-16.064 10.005333z m267.221333 0a18.048 18.048 0 0 1-16.042666-10.005333l-137.898667-270.933334a18.986667 18.986667 0 0 1 7.616-25.237333 17.856 17.856 0 0 1 24.469333 7.872l137.877334 270.933333a18.986667 18.986667 0 0 1-7.616 25.216 17.664 17.664 0 0 1-8.405334 2.133334z m26.154667 8.32H411.434667a18.410667 18.410667 0 0 1-18.133334-18.688c0-10.325333 8.128-18.688 18.133334-18.688h259.562666c10.026667 0 18.133333 8.362667 18.133334 18.688 0 10.304-8.106667 18.666667-18.133334 18.666667z" fill="#0091FF" p-id="2236"></path></svg>