<?xml version="1.0" standalone="no"?><!DOCTYPE svg PUBLIC "-//W3C//DTD SVG 1.1//EN" "http://www.w3.org/Graphics/SVG/1.1/DTD/svg11.dtd"><svg t="1583127337180" class="icon" viewBox="0 0 1024 1024" version="1.1" xmlns="http://www.w3.org/2000/svg" p-id="1994" xmlns:xlink="http://www.w3.org/1999/xlink" width="200" height="200"><defs><style type="text/css"></style></defs><path d="M512 512m-426.666667 0a426.666667 426.666667 0 1 0 853.333334 0 426.666667 426.666667 0 1 0-853.333334 0Z" fill="#E6F7FF" p-id="1995"></path><path d="M725.226667 637.12l0.106666-43.306667s-28.586667-5.653333-29.034666-7.573333a118.464 118.464 0 0 0-1.749334-6.229333c3.349333-6.186667 19.413333-19.84 19.413334-19.84l-32.192-42.922667s-20.906667 17.216-26.069334 19.669333a93.141333 93.141333 0 0 0-7.68-2.56c-2.773333-0.682667-10.538667-28.224-10.538666-28.224l-43.370667-0.341333s-4.693333 26.666667-11.733333 28.48c-2.325333 0.682667-4.693333 1.578667-7.04 2.645333-5.184-2.56-26.069333-20.010667-26.069334-20.010666l-32.213333 43.626666s16.170667 16.277333 17.237333 21.717334a92.224 92.224 0 0 0-1.92 5.248c-6.954667 2.410667-26.666667 6.314667-26.666666 6.314666l0.085333 43.306667s22.954667 4.778667 27.306667 8.618667c0.917333 2.474667 1.92 4.906667 3.050666 7.296-5.290667 6.613333-19.413333 17.642667-19.413333 17.642666l33.237333 43.306667s26.090667-16.917333 30.378667-17.877333c2.133333 0.938667 4.309333 1.792 6.528 2.56 3.925333 1.365333 6.698667 26.56 6.698667 26.56l43.306666 0.106666s1.472-24.725333 4.650667-25.706666c3.136-0.981333 6.186667-2.133333 9.194667-3.456 3.626667 1.408 20.757333 18.474667 20.757333 18.474666l42.837333-43.605333s-15.893333-10.986667-20.266666-16.896c1.173333-2.474667 2.261333-4.992 3.242666-7.573333 1.493333-3.946667 27.925333-9.450667 27.925334-9.450667z m-110.208 32.810667a54.656 54.656 0 1 1 0-109.333334 54.656 54.656 0 0 1 0 109.333334zM475.946667 503.68c49.706667 0 100.330667-48.896 100.330666-100.629333S528.106667 298.666667 478.378667 298.666667c-49.685333 0-99.114667 53.930667-99.114667 105.664 0 51.754667 46.997333 99.370667 96.704 99.370666z m21.866666 21.546667h-99.413333c-24.874667 0-62.165333 12.970667-74.581333 51.754666l-24.874667 77.610667c-6.229333 19.498667 84.821333 29.418667 175.36 29.098667 30.08-0.106667 9.6-24.746667 9.6-56.085334 0-71.338667 60.906667-102.357333 13.909333-102.357333z" fill="#1890FF" p-id="1996"></path></svg>